<svg width="127" height="81" viewBox="0 0 127 81" fill="none" xmlns="http://www.w3.org/2000/svg">
<path d="M74.469 9.79816C70.072 13.2832 62.099 13.6192 56.293 14.2592C52.259 14.7032 48.193 14.9342 44.087 14.8852C45.4 15.2482 46.711 15.6302 48.019 16.0272C50.675 14.6642 55.198 15.4172 58.226 15.4872C62.337 15.5812 66.469 15.8462 70.604 16.3552C78.536 17.3302 86.35 19.3282 93.747 22.9682C95.326 23.7452 95.501 25.8932 93.46 24.9832C86.043 21.6752 78.241 20.0452 70.426 19.3172C66.895 18.9882 63.37 18.8402 59.855 18.7382C58.662 18.7032 57.436 18.7352 56.201 18.7472C60.6 20.3352 64.942 22.1092 69.198 24.0762C69.253 23.9672 69.367 23.8892 69.57 23.8662C72.922 23.4832 76.843 25.0972 80.182 26.0312C84.23 27.1632 88.259 28.3812 92.237 29.8142C99.838 32.5532 107.192 35.9382 113.774 40.7802C114.949 41.6452 114.276 42.6252 113.02 41.8962C105.796 37.7032 98.187 34.3972 90.332 31.8252C86.745 30.6512 83.138 29.5732 79.515 28.5702C78.623 28.3232 77.725 28.0972 76.828 27.8662C79.45 29.2632 82.033 30.7422 84.566 32.3012C84.583 32.3052 84.597 32.3062 84.614 32.3102C91.804 34.0512 98.768 38.1842 105.06 42.1682C111.739 46.3972 118.341 51.1572 123.921 56.7052C125.02 57.7972 123.897 58.7182 122.711 57.8172C116.665 53.2292 110.711 48.6262 104.217 44.6472C102.089 43.3432 99.907 42.1392 97.71 40.9632C99.366 42.2182 100.937 43.6422 102.436 44.8452C105.828 47.5672 109.181 50.3422 112.45 53.1982C117.544 57.6472 124.024 62.6202 126.764 68.6912C127.156 69.5592 125.789 69.2612 125.45 68.7512C122.589 64.4552 118.25 60.8122 113.987 57.3642C117.212 61.2512 120.132 65.3632 122.68 69.6992C122.966 70.1852 122.653 70.3452 122.232 70.3052C122.493 70.7672 122.759 71.2272 123.008 71.6942C124.417 74.3302 126.515 77.5552 126.565 80.4012C126.579 81.1432 125.307 80.3982 125.081 80.1372C122.991 77.7202 121.768 74.6692 120.152 71.9872C118.263 68.8532 116.308 65.7552 114.143 62.7592C112.699 60.7622 111.08 58.8432 109.444 56.9302C109.468 56.9762 109.493 57.0252 109.517 57.0702C112.589 62.8392 114.614 68.9762 117.448 74.8322C118.027 76.0292 116.234 75.7882 115.65 75.1662C111.159 70.3772 109.419 64.1682 106.614 58.6142C105.268 55.9482 103.764 53.3132 102.227 50.7222C101.261 49.0942 100.008 47.4302 99.134 45.6982C97.041 43.9902 94.89 42.3462 92.686 40.7682C94.314 42.8272 95.744 44.9702 96.954 46.9322C100.364 52.4612 103.376 59.5692 102.775 65.6372C102.675 66.6512 101.024 65.4542 100.842 64.9272C98.769 58.9352 97.074 53.1812 93.606 47.5632C92.012 44.9822 90.147 42.5032 88.064 40.2152C86.038 37.9892 83.546 36.0292 81.7 33.6752C78.161 31.6152 74.532 29.7062 70.843 27.9432C74.743 31.0742 78.195 34.9552 81.324 38.4992C85.418 43.1362 89.361 48.4322 89.936 54.2852C90.097 55.9212 87.452 54.6022 87.147 53.5232C85.551 47.8632 81.961 43.0862 77.813 38.5672C73.421 33.7812 67.874 29.8542 63.8 24.8722C63.767 24.8322 63.754 24.7962 63.729 24.7582C60.667 23.4762 57.568 22.3022 54.446 21.2182C54.679 21.4212 54.911 21.6222 55.143 21.8362C57.852 24.3332 60.401 26.9742 62.858 29.6862C67.962 35.3202 72.449 41.3852 76.855 47.4692C78.035 49.0992 75.577 48.9122 74.713 47.8612C66.576 37.9682 58.345 28.0452 48.73 19.3452C44.941 18.1862 41.12 17.1752 37.282 16.3012C40.928 20.0452 44.351 23.9752 48.029 27.7022C52.271 32.0002 56.91 35.9152 61.197 40.1622C62.135 41.0912 61.188 41.8292 60.176 41.1012C55.144 37.4772 50.588 33.0692 46.209 28.7612C42.05 24.6702 37.834 20.3842 34.503 15.6902C31.99 15.1762 29.486 14.7532 26.988 14.3972C30.683 17.8022 33.821 21.8992 37.419 25.3652C41.684 29.4732 46.259 33.2652 50.912 36.9672C51.978 37.8152 50.875 38.5142 49.91 37.8882C44.538 34.4062 39.548 30.4222 34.856 26.1202C31.084 22.6612 26.181 18.4842 23.756 13.9702C16.532 13.0842 9.33298 12.6252 2.04398 11.8642C1.15298 11.7712 -1.04002 9.78516 0.582985 9.57916C7.38499 8.71516 14.664 9.16416 21.887 10.2102C26.858 8.53216 32.037 7.26816 36.964 5.48916C39.866 4.44116 42.745 3.34316 45.575 2.16116C48.036 1.13316 50.192 -0.0158386 53.051 0.000160217C53.683 0.00415802 54.758 0.83316 54.413 1.45616C53.146 3.74316 50.102 4.52216 47.672 5.50416C45.056 6.56016 42.404 7.54617 39.703 8.44016C36.364 9.54517 32.953 10.6402 29.461 11.5032C31.125 11.8252 32.775 12.1662 34.405 12.5172C34.499 12.3432 34.723 12.2222 35.142 12.2062C41.754 11.9452 48.378 11.6582 54.858 10.8032C60.892 10.0072 66.826 7.85816 73.046 7.97616C73.814 7.98916 75.268 9.16516 74.469 9.79816Z" fill="#E1E1E1"/>
</svg>
