<svg width="114" height="114" viewBox="0 0 114 114" fill="none" xmlns="http://www.w3.org/2000/svg">
<path d="M103.248 36.5117C100.405 51.7752 92.6336 65.8879 80.2398 75.44C74.3184 80.0035 67.5041 83.3542 60.3068 85.36C56.6801 86.3709 52.9415 87.0159 49.1868 87.2988C45.5072 87.5768 41.6475 87.6588 38.0189 86.8979C33.7873 86.012 31.4575 83.3102 28.7768 80.2015C26.736 77.8347 24.4122 75.7129 21.1125 75.641C19.6406 75.609 19.5887 77.6448 21.0825 77.6668C24.3712 77.7158 26.446 80.5405 28.3988 82.8053C30.6096 85.37 32.9544 87.4728 36.2761 88.4427C40.0287 89.5376 44.1573 89.5046 48.0329 89.3026C51.8816 89.1017 55.7012 88.5077 59.4368 87.5658C74.3824 83.7952 87.3772 74.3221 95.6434 61.3203C100.377 53.875 103.661 45.4998 104.133 36.6447C104.163 36.0787 103.355 35.9368 103.248 36.5117Z" fill="#E1E1E1"/>
<path d="M104.086 36.0877C98.5291 31.3552 91.1958 28.4455 84.1995 26.6586C76.9402 24.8048 69.3649 24.2649 61.9146 25.0418C47.216 26.5757 31.1435 33.451 22.9123 46.2938C20.5746 49.9394 18.9457 54.068 18.6247 58.4146C18.2278 63.7931 18.7357 69.0926 16.9709 74.2931C16.5109 75.6489 18.4518 76.5679 19.0377 75.212C20.8085 71.1134 20.7665 66.5338 20.8495 62.1492C20.9265 58.1026 21.4055 54.368 23.1653 50.6743C26.436 43.808 32.5054 38.5385 38.9968 34.7929C51.5336 27.5576 66.7651 25.4788 80.9118 28.1585C84.9434 28.9224 88.873 30.0963 92.6686 31.6522C96.4373 33.197 99.891 35.1748 103.436 37.1556C104.077 37.5126 104.609 36.5347 104.086 36.0877Z" fill="#E1E1E1"/>
<path d="M103.258 36.3037C97.0522 39.3594 91.1068 42.8791 85.1324 46.3558C79.4519 49.6604 73.5065 52.4562 67.4381 54.9689C55.5422 59.8935 43.2504 63.8501 31.6515 69.4835C28.4828 71.0224 25.3411 72.6462 22.3114 74.4441C19.3107 76.2249 15.688 78.7456 12.0294 77.5388C12.0184 78.0877 12.0084 78.6377 11.9974 79.1866C24.2642 72.8992 36.815 67.1118 49.6508 62.0813C55.9352 59.6185 62.3076 57.4157 68.6529 55.1199C74.5014 53.0031 80.3498 50.6843 85.5923 47.2917C91.2838 43.608 96.5573 38.5385 103.478 37.3496C104.383 37.1946 104.219 35.7688 103.305 35.9248C97.4912 36.9187 92.5937 40.5403 87.9171 43.907C82.7156 47.6506 76.8502 50.3084 70.8777 52.5652C64.5543 54.9549 58.129 57.0647 51.8126 59.4775C45.4142 61.9223 39.0668 64.506 32.7924 67.2528C25.5271 70.4344 18.3738 73.8761 11.3324 77.5238C10.7325 77.8337 10.4935 78.9086 11.3004 79.1716C17.2439 81.1014 22.9853 75.8839 27.8489 73.2122C33.6943 70.0005 39.8747 67.4097 46.0441 64.898C58.222 59.9415 70.7137 55.5709 82.2216 49.1325C89.365 45.1369 96.2073 40.6663 103.521 36.9687C103.932 36.7657 103.675 36.0987 103.258 36.3037Z" fill="#E1E1E1"/>
<path d="M98.8621 43.629C98.6941 43.563 98.5101 43.449 98.2211 43.478C97.9541 43.505 97.7152 43.58 97.4812 43.71C96.9932 43.978 96.6233 44.3539 96.4033 44.8679C96.3313 45.0359 96.3663 45.2969 96.5333 45.4038C96.6963 45.5068 96.8502 45.6108 97.0512 45.6038C97.2452 45.5978 97.3972 45.6438 97.5892 45.6838C97.9231 45.7538 98.2611 45.7838 98.5881 45.6708C98.7421 45.6168 98.7191 45.3579 98.5511 45.3459C98.0891 45.3139 97.7152 45.3039 97.3052 45.0559C97.3522 45.1049 97.3982 45.1529 97.4442 45.2009C97.3752 44.9739 97.2712 44.8559 97.1012 44.6979C97.1242 44.9109 97.1472 45.1219 97.1692 45.3339C97.3722 45.0289 97.6312 44.7379 97.9501 44.5489C98.2211 44.3879 98.7411 44.294 98.8521 43.977C98.7961 44.031 98.7401 44.085 98.6841 44.139C98.7391 44.108 98.7961 44.079 98.8541 44.053C99.022 43.973 99.059 43.706 98.8621 43.629Z" fill="#E1E1E1"/>
<path d="M28.4118 68.0137C28.3688 68.0067 28.3588 68.0747 28.4018 68.0797C28.4458 68.0877 28.4558 68.0197 28.4118 68.0137Z" fill="#E1E1E1"/>
<path d="M29.0257 71.4414C29.0437 71.3214 29.0607 71.2024 29.0797 71.0834C29.0847 71.0484 29.0318 71.0414 29.0258 71.0754C29.0078 71.1954 28.9898 71.3154 28.9718 71.4334C28.9658 71.4674 29.0197 71.4754 29.0257 71.4414Z" fill="#E1E1E1"/>
<path d="M72.2206 31.9681C70.9417 32.7411 69.6359 33.761 69.6809 35.4298C69.6869 35.6498 70.0128 35.7338 70.1368 35.5598C70.9047 34.4899 71.3777 33.109 72.4386 32.2621C72.6256 32.1131 72.4206 31.8481 72.2206 31.9681Z" fill="#E1E1E1"/>
<path d="M67.4521 35.5128C67.617 35.1318 67.826 34.7889 68.102 34.4769C68.235 34.3279 68.382 34.2009 68.533 34.0719C68.6969 33.9299 68.8089 33.752 68.9759 33.609C69.2359 33.387 69.0189 32.932 68.6759 33.069C68.175 33.268 67.84 33.475 67.4851 33.89C67.1571 34.2739 66.9031 34.7199 66.7221 35.1888C66.5372 35.6658 67.2471 35.9878 67.4521 35.5128Z" fill="#E1E1E1"/>
<path d="M97.9981 48.4106C96.8772 48.5775 96.0233 49.6974 96.2813 50.8393C96.3523 51.1543 96.6113 51.3153 96.9252 51.2213C97.5172 51.0433 98.1341 50.4884 98.1241 49.8264C98.1201 49.6304 97.8481 49.5245 97.7052 49.6454C97.5542 49.7724 97.4542 49.9604 97.2892 50.0694C97.1232 50.1794 96.8872 50.2754 96.6943 50.3144C96.8692 50.4514 97.0442 50.5884 97.2202 50.7263C97.0532 50.0034 97.4352 49.2775 98.1661 49.0605C98.5341 48.9525 98.3741 48.3546 97.9981 48.4106Z" fill="#E1E1E1"/>
<path d="M84.7744 59.7465C84.1755 60.1294 83.4985 60.4084 82.8066 60.5724C82.2116 60.7134 81.7137 60.7494 81.2587 61.1923C81.1418 61.3053 81.1877 61.5293 81.3047 61.6203C82.5216 62.5632 84.4074 61.1133 85.2584 60.2504C85.5543 59.9505 85.0914 59.5435 84.7744 59.7465Z" fill="#E1E1E1"/>
<path d="M82.9876 62.8372C82.1217 63.1431 81.3937 62.9532 80.5778 62.6172C80.4628 62.5702 80.3708 62.7202 80.4658 62.8012C81.1777 63.4091 82.2606 63.4281 83.1086 63.1401C83.3055 63.0712 83.1856 62.7672 82.9876 62.8372Z" fill="#E1E1E1"/>
<path d="M80.5288 76.2889C78.441 77.0668 76.3672 77.1708 74.2014 77.5048C73.7815 77.5688 73.7775 78.1587 74.1914 78.2427C76.4212 78.6927 78.814 77.9077 80.7658 76.8798C81.1208 76.6928 80.9218 76.1419 80.5288 76.2889Z" fill="#E1E1E1"/>
<path d="M73.8035 80.2005C72.7176 80.6605 71.3907 80.7015 70.2648 80.3515C70.0528 80.2855 69.9158 80.5685 70.1218 80.6725C71.3997 81.3264 72.7016 81.2884 73.9744 80.6275C74.2324 80.4935 74.0824 80.0815 73.8035 80.2005Z" fill="#E1E1E1"/>
<path d="M42.6104 76.0469C42.0765 75.9449 41.5715 75.7819 41.0816 75.544C40.6606 75.339 40.2417 75.12 39.7667 75.091C39.5817 75.08 39.3888 75.253 39.4817 75.45C39.9747 76.4949 41.4686 76.7128 42.5005 76.7688C42.9654 76.7958 43.0804 76.1369 42.6104 76.0469Z" fill="#E1E1E1"/>
<path d="M39.9587 76.1129C39.6917 76.1379 39.4238 76.1639 39.1578 76.1899C38.9098 76.2139 38.6518 76.2099 38.4288 76.3289C38.3009 76.3969 38.2419 76.6359 38.4218 76.6898C38.6728 76.7668 38.9038 76.7298 39.1618 76.7058C39.4477 76.6779 39.7347 76.6509 40.0207 76.6229C40.3497 76.5919 40.2887 76.0809 39.9587 76.1129Z" fill="#E1E1E1"/>
<path d="M27.0449 49.1905C27.4499 48.4436 27.5069 47.6086 27.2379 46.8077C27.1199 46.4578 26.64 46.4218 26.421 46.6847C25.5951 47.6786 24.7052 49.3745 24.9871 50.7103C25.0251 50.8883 25.2481 50.9273 25.3361 50.7633C25.6331 50.2084 25.7281 49.5675 26.013 49.0025C26.322 48.3876 26.737 47.8206 27.1669 47.2867C26.914 47.2817 26.662 47.2757 26.409 47.2707C26.736 47.8176 26.779 48.3846 26.562 48.9775C26.446 49.2975 26.884 49.4895 27.0449 49.1905Z" fill="#E1E1E1"/>
<path d="M23.1323 59.1865C23.3123 58.2386 23.5953 57.1977 23.5113 56.2278C23.4853 55.9298 23.0423 55.8628 22.9303 56.1408C22.5654 57.0437 22.5294 58.1216 22.4224 59.0805C22.3714 59.5395 23.0453 59.6415 23.1323 59.1865Z" fill="#E1E1E1"/>
<path d="M45.4982 48.1436C45.2542 47.3677 45.0202 46.5957 44.6892 45.8528C44.6333 45.7268 44.4093 45.7668 44.4423 45.9158C44.6163 46.7257 44.8832 47.5006 45.1472 48.2846C45.2242 48.5176 45.5712 48.3746 45.4982 48.1436Z" fill="#E1E1E1"/>
<path d="M41.2536 48.9505C41.2166 47.4817 41.8075 46.2208 42.3755 44.9029C42.4595 44.7089 42.2225 44.5039 42.0495 44.6409C40.7116 45.6908 40.3487 47.4237 40.4347 49.0495C40.4606 49.5834 41.2666 49.4755 41.2536 48.9505Z" fill="#E1E1E1"/>
<path d="M82.4286 37.1506C82.0187 37.4666 81.6167 37.7766 81.2387 38.1305C81.1428 38.2205 81.2457 38.3595 81.3597 38.2935C81.8087 38.0366 82.2236 37.7436 82.6456 37.4436C82.8386 37.3086 82.6156 37.0057 82.4286 37.1506Z" fill="#E1E1E1"/>
<path d="M71.8886 49.5944C71.8366 49.5864 71.8246 49.6664 71.8766 49.6744C71.9286 49.6824 71.9406 49.6024 71.8886 49.5944Z" fill="#E1E1E1"/>
<path d="M69.2529 49.9584C69.6469 49.7724 70.0668 49.6084 70.4418 49.3855C70.4898 49.3575 70.4448 49.2845 70.3958 49.3035C69.9938 49.4595 69.6089 49.6884 69.2229 49.8824C69.1759 49.9054 69.2049 49.9804 69.2529 49.9584Z" fill="#E1E1E1"/>
<path d="M69.5789 50.0464C69.6649 50.3024 69.7508 50.5584 69.8358 50.8153C69.8518 50.8653 69.9268 50.8343 69.9118 50.7853C69.8298 50.5274 69.7478 50.2694 69.6669 50.0124C69.6489 49.9524 69.5589 49.9884 69.5789 50.0464Z" fill="#E1E1E1"/>
<path d="M72.8515 50.3414C73.3515 49.7074 73.8495 49.0735 74.3494 48.4396C74.8114 47.8536 75.2983 47.3027 75.5183 46.5787C75.5883 46.3488 75.3623 46.1228 75.1403 46.2748C74.5174 46.7017 74.1444 47.3227 73.7285 47.9386C73.2755 48.6095 72.8215 49.2795 72.3676 49.9514C72.1446 50.2784 72.5996 50.6613 72.8515 50.3414Z" fill="#E1E1E1"/>
<path d="M68.608 63.5341C67.3381 61.4063 64.0644 60.9264 62.2956 62.6392C62.1246 62.8042 62.3616 63.0572 62.5525 62.9862C64.5823 62.2422 66.4982 62.5782 68.065 64.0531C68.401 64.371 68.8129 63.8771 68.608 63.5341Z" fill="#E1E1E1"/>
<path d="M58.5329 72.6192C56.8211 72.5073 55.1012 72.3313 53.3844 72.4303C53.1934 72.4413 53.2084 72.7162 53.3804 72.7522C55.0403 73.0982 56.7441 73.1762 58.4289 73.3152C58.8779 73.3522 58.9829 72.6492 58.5329 72.6192Z" fill="#E1E1E1"/>
<path d="M52.4295 69.7595C52.5545 67.6347 49.3108 67.2728 48.3989 68.9366C48.3299 69.0616 48.3559 69.2576 48.4469 69.3666C49.1588 70.2265 50.2777 71.0174 51.3996 70.3155C51.5636 70.2135 51.4986 69.8945 51.2946 69.8905C50.5577 69.8755 49.4978 69.7795 49.1938 68.9516C49.1458 69.1196 49.0978 69.2876 49.0508 69.4565C49.9407 68.6066 51.2796 68.9576 51.9835 69.8715C52.1025 70.0305 52.4165 69.9865 52.4295 69.7595Z" fill="#E1E1E1"/>
<path d="M54.8243 69.8805C55.0463 70.0325 55.3292 69.9815 55.4402 69.7185C55.5332 69.4995 55.5022 69.2446 55.3742 69.0466C55.3992 69.1096 55.4242 69.1706 55.4482 69.2326C55.3602 68.8606 54.9753 68.6936 54.6523 68.9286C54.4533 69.0736 54.4253 69.2796 54.4763 69.5005C54.5253 69.7155 54.5863 69.9185 54.7073 70.1055C54.8073 70.2595 54.9093 70.4734 55.1072 70.5054C55.2532 70.5294 55.3962 70.4504 55.4572 70.3135C55.4952 70.2275 55.4842 70.1285 55.4872 70.0375C55.4902 69.9345 55.5012 69.8255 55.4932 69.7235C55.4782 69.5365 55.3992 69.3136 55.3232 69.1416C55.3002 69.2926 55.2782 69.4445 55.2552 69.5955C55.3042 69.5285 55.1112 69.6635 55.1572 69.6635C55.1902 69.6445 55.2222 69.6265 55.2562 69.6085C55.2112 69.6395 55.1602 69.6605 55.1062 69.6685C55.0373 69.6575 54.9683 69.6485 54.8993 69.6375C54.8423 69.5985 54.8293 69.5935 54.8613 69.6195C54.8223 69.5765 54.8143 69.5705 54.8383 69.6025C54.8583 69.6345 54.8563 69.6285 54.8303 69.5865C54.8353 69.5975 54.8403 69.6085 54.8443 69.6205C54.8533 69.6435 54.8503 69.6345 54.8403 69.5945C54.8443 69.6305 54.8463 69.6245 54.8463 69.5745C54.8343 69.6445 54.8613 69.6055 54.9253 69.4595C54.9563 69.4365 54.9883 69.4245 55.0253 69.4235C54.7863 69.3965 54.6043 69.7285 54.8243 69.8805Z" fill="#E1E1E1"/>
<path d="M46.926 84.6141C46.6751 84.3691 46.5011 84.2431 46.1361 84.2301C45.7931 84.2191 45.4662 84.2941 45.2022 84.5201C44.9962 84.6981 44.9712 84.9371 45.1042 85.168C45.4742 85.812 46.3001 86.1679 47.028 86.0979C47.27 86.0739 47.278 85.7 47.034 85.668C46.4531 85.591 46.1011 85.253 45.9071 84.7211C45.8551 84.9031 45.8041 85.084 45.7521 85.266C45.9121 85.17 46.0741 85.074 46.2611 85.045C46.4081 85.022 46.6201 84.9681 46.763 84.9851C46.982 85.0121 47.071 84.7551 46.926 84.6141Z" fill="#E1E1E1"/>
<path d="M39.0678 83.9552C38.7788 83.7122 38.4898 83.4752 38.1869 83.2502C37.9099 83.0452 37.6279 82.7673 37.3 82.6593C37.011 82.5643 36.804 82.8413 36.947 83.0982C37.115 83.4002 37.4449 83.6242 37.6979 83.8572C37.9759 84.1131 38.2639 84.3511 38.5568 84.5881C38.9668 84.9181 39.4677 84.2911 39.0678 83.9552Z" fill="#E1E1E1"/>
<path d="M96.7793 32.6631C94.7544 33.014 93.4326 34.8719 92.4337 36.5187C90.9768 38.9175 89.5309 41.5072 88.668 44.18C88.589 44.4269 88.899 44.6649 89.08 44.4319C90.5468 42.5491 91.5598 40.3863 92.6826 38.2935C93.8285 36.1577 95.1424 34.6799 96.9472 33.089C97.1112 32.945 97.0332 32.6191 96.7793 32.6631Z" fill="#E1E1E1"/>
<path d="M95.7763 31.9461C93.1846 31.6522 91.1788 34.1559 90.1049 36.1957C88.504 39.2364 87.4661 42.6661 86.6472 45.9908C86.6062 46.1558 86.8472 46.2028 86.9182 46.0698C88.2711 43.541 89.268 40.9243 90.3599 38.2825C90.9108 36.9517 91.5448 35.6418 92.5167 34.5639C93.4636 33.513 94.5815 32.965 95.8233 32.3511C95.9973 32.2611 95.9983 31.9701 95.7763 31.9461Z" fill="#E1E1E1"/>
<path d="M97.0122 55.7459C94.4975 56.6088 91.7467 56.9897 89.09 56.7828C86.1713 56.5558 83.4545 55.5509 80.6908 54.661C77.0531 53.4911 71.5367 51.9642 68.5 55.1829C68.267 55.4299 68.524 55.9168 68.8649 55.8418C71.1177 55.3389 73.2925 54.8459 75.6153 55.1209C78.325 55.4409 80.8798 56.4458 83.4805 57.2147C88.1991 58.6076 92.8136 58.6106 97.3642 56.6258C97.9241 56.3818 97.5892 55.5469 97.0122 55.7459Z" fill="#E1E1E1"/>
<path d="M69.9368 25.6467C64.6973 26.6426 62.3036 33.204 61.4566 37.8026C60.2318 44.4529 61.0417 51.5663 57.521 57.6247C57.0091 58.5066 58.4629 59.1405 58.9689 58.2686C62.0556 52.9501 61.9496 46.7507 62.6135 40.8233C62.9475 37.8376 63.4844 34.8409 64.8273 32.1281C66.0672 29.6224 68.003 27.7865 70.0588 25.9507C70.1718 25.8497 70.1178 25.6117 69.9368 25.6467Z" fill="#E1E1E1"/>
<path d="M76.7102 78.7317C75.1113 79.0466 73.5815 79.5666 71.9506 79.7296C70.2668 79.8975 68.585 79.8215 66.9131 79.5676C63.4025 79.0346 60.0618 77.7377 56.7861 76.4079C53.2324 74.964 50.0917 73.0692 46.945 70.8964C44.1623 68.9756 41.2326 67.1678 37.7679 66.9788C36.603 66.9158 36.321 68.7236 37.4959 68.7866C41.4266 68.9976 44.5173 71.4484 47.64 73.5891C50.9066 75.8279 54.4233 77.4028 58.147 78.7267C61.2547 79.8305 64.5663 80.7465 67.858 81.0484C70.8117 81.3184 74.5324 81.2254 76.8802 79.1596C77.0401 79.0156 76.9642 78.6817 76.7102 78.7317Z" fill="#E1E1E1"/>
<path d="M29.6197 69.5735C31.7205 68.1267 32.3824 64.987 32.7784 62.6312C33.2583 59.7695 33.2004 56.8317 33.1364 53.94C33.0704 50.9743 32.9224 47.9926 33.1944 45.0329C33.3313 43.542 33.5723 42.0592 33.9963 40.6213C34.3922 39.2774 35.0632 37.9986 35.2572 36.6047C35.3171 36.1687 34.8112 35.8608 34.4532 36.1207C32.3724 37.6376 31.7685 40.8693 31.4125 43.2651C30.9856 46.1398 31.0216 49.0715 31.1036 51.9692C31.1885 54.9399 31.3195 57.9087 31.0695 60.8744C30.9456 62.3442 30.7336 63.7921 30.3566 65.219C29.9967 66.5808 29.3707 67.9167 29.2037 69.3216C29.1747 69.5525 29.4297 69.7035 29.6197 69.5735Z" fill="#E1E1E1"/>
<path d="M30.1266 69.1306C31.8675 64.0801 31.5605 58.9116 31.1016 53.6691C30.8636 50.9553 30.6276 48.2396 30.6306 45.5128C30.6336 42.8081 30.6436 39.7924 32.5204 37.6416C32.7344 37.3956 32.4364 36.9577 32.1315 37.1146C30.1206 38.1495 29.6287 40.3713 29.4087 42.4611C29.1077 45.3139 29.2607 48.1766 29.5017 51.0273C30.0057 56.9667 30.9506 63.0792 29.5857 68.9736C29.5137 69.2816 30.0217 69.4335 30.1266 69.1306Z" fill="#E1E1E1"/>
<path d="M77.0771 78.6267C73.7515 80.6785 69.8318 80.8884 66.0532 81.3694C62.0416 81.8814 57.213 83.2022 53.7424 80.4335C51.0586 78.2917 49.5758 74.983 47.274 72.4793C45.0222 70.0315 41.9725 67.5697 38.7268 66.6258C37.9259 66.3928 37.4379 67.4067 38.1939 67.8267C40.1207 68.8976 42.0405 69.7995 43.7833 71.1844C45.3502 72.4293 46.7201 73.8731 47.9199 75.473C49.9407 78.1637 51.7846 81.4254 55.0723 82.7333C59.0229 84.3061 63.8204 82.8583 67.838 82.2343C71.0977 81.7284 74.9653 81.4804 77.3271 78.8886C77.4771 78.7267 77.2441 78.5237 77.0771 78.6267Z" fill="#E1E1E1"/>
<path d="M68.415 26.1567C66.6301 27.6756 65.6682 30.3813 64.9043 32.5271C64.0324 34.9768 63.4604 37.5386 63.2375 40.1314C62.9815 43.0991 63.2465 46.0918 62.8965 49.0515C62.5645 51.8492 61.4886 54.167 59.9068 56.4688C59.7038 56.7638 60.0298 57.1037 60.3347 56.9147C64.7703 54.159 64.2984 47.3997 64.3454 42.9011C64.3764 39.8704 64.7493 36.8697 65.6432 33.9659C66.0682 32.5851 66.5961 31.2352 67.2151 29.9303C67.768 28.7674 68.487 27.6546 68.8339 26.4097C68.8949 26.1887 68.581 26.0167 68.415 26.1567Z" fill="#E1E1E1"/>
<path d="M26.445 73.6161C30.7766 74.2381 32.6264 79.9095 37.4079 79.5136C37.6779 79.4916 37.6919 79.0536 37.4149 79.0306C35.1042 78.8356 33.3833 77.0308 31.6885 75.6279C30.1606 74.3621 28.5268 73.3622 26.5 73.2412C26.263 73.2262 26.2 73.5811 26.445 73.6161Z" fill="#E1E1E1"/>
<path d="M25.3861 71.3454C25.6421 69.6895 25.1071 67.8847 25.0851 66.2048C25.0591 64.193 25.3091 62.2872 25.6191 60.3094C25.6791 59.9215 25.1261 59.7665 24.9621 60.1184C24.1382 61.8843 23.7233 63.9171 23.7053 65.8609C23.6893 67.6207 23.7973 70.0345 24.9981 71.4413C25.1171 71.5803 25.3561 71.5393 25.3861 71.3454Z" fill="#E1E1E1"/>
<path d="M43.6493 64.191C44.6942 62.1162 44.7432 59.2235 44.9112 56.9357C45.0932 54.456 45.1852 51.9322 44.5763 49.5075C44.4823 49.1335 43.9163 49.0555 43.8513 49.4965C43.4884 51.9772 43.5884 54.499 43.4714 57.0017C43.3644 59.2945 42.7294 61.8253 43.0164 64.0961C43.0584 64.43 43.5044 64.478 43.6493 64.191Z" fill="#E1E1E1"/>
<path d="M41.9975 64.653C42.5994 62.8312 42.7904 60.7504 42.8304 58.8426C42.8364 58.5806 42.5005 58.5286 42.4285 58.7826C41.9065 60.6184 41.4786 62.6642 41.5186 64.582C41.5256 64.825 41.9225 64.884 41.9975 64.653Z" fill="#E1E1E1"/>
<path d="M55.3782 29.5944C48.2579 38.5485 54.1993 51.1233 48.0229 60.4134C47.563 61.1053 48.5699 61.9243 49.0348 61.2293C55.3322 51.8062 49.2908 39.1634 55.6942 29.8503C55.8412 29.6374 55.5422 29.3884 55.3782 29.5944Z" fill="#E1E1E1"/>
<path d="M47.9659 61.5623C49.7958 59.3085 50.4827 55.3259 50.1897 52.5012C50.1367 51.9982 49.4298 52.0232 49.3308 52.4882C49.0148 53.974 48.8778 55.5009 48.5699 56.9927C48.2639 58.4686 47.75 59.9125 47.644 61.4203C47.63 61.5943 47.8449 61.7113 47.9659 61.5623Z" fill="#E1E1E1"/>
<path d="M86.2003 70.9734C83.1546 70.8914 80.2048 71.3294 77.2031 70.5374C74.1194 69.7235 71.1727 68.2987 68.275 66.9908C65.5782 65.7719 62.9085 64.5 60.2488 63.2001C58.05 62.1272 55.3892 60.7884 52.9385 61.7673C52.5425 61.9253 52.5955 62.5602 53.0364 62.6112C54.4913 62.7782 55.8992 62.9422 57.281 63.4601C58.6029 63.9561 59.8538 64.631 61.1197 65.2509C63.8744 66.5998 66.6611 67.8727 69.4879 69.0636C72.1066 70.1665 74.7624 71.3444 77.5581 71.9243C80.3598 72.5043 83.4185 72.3853 86.1893 71.6983C86.5462 71.6093 86.6542 70.9854 86.2003 70.9734Z" fill="#E1E1E1"/>
<path d="M84.4414 72.2023C81.5697 72.6342 78.884 72.9422 75.9942 72.3823C73.1405 71.8303 70.4078 70.7194 67.837 69.3826C62.6595 66.6908 57.812 62.9712 52.0925 61.4613C51.8456 61.3963 51.7656 61.7683 51.9726 61.8733C57.64 64.763 62.7815 68.6186 68.548 71.3154C73.1675 73.4772 79.7749 75.501 84.6184 72.8912C84.9484 72.7132 84.8764 72.1373 84.4414 72.2023Z" fill="#E1E1E1"/>
<path d="M92.3327 59.2875C91.6927 59.2815 91.0718 59.4465 90.4319 59.4745C89.7459 59.5045 89.058 59.5345 88.3721 59.5145C88.0541 59.5065 87.9201 59.8945 88.2151 60.0554C89.5089 60.7654 91.3778 60.9464 92.6137 59.9924C92.9486 59.7335 92.7046 59.2915 92.3327 59.2875Z" fill="#E1E1E1"/>
<path d="M72.9095 53.807C73.1255 52.8911 76.9602 53.1941 77.6511 53.1451C79.2179 53.0321 80.7868 52.9511 82.3556 52.8761C85.4203 52.7291 88.705 52.9581 91.7087 52.3182C92.0517 52.2452 92.0387 51.8202 91.7167 51.7282C87.9891 50.6523 83.4895 51.0723 79.6669 51.3653C78.547 51.4513 71.4957 51.4833 72.6256 53.841C72.6906 53.978 72.8755 53.953 72.9095 53.807Z" fill="#E1E1E1"/>
<path d="M76.5232 51.0753C77.5321 50.2484 78.506 49.5545 79.3559 48.5485C80.3038 47.4247 81.1518 46.2068 81.9307 44.9599C83.2695 42.8151 84.8554 40.2133 84.9284 37.6186C84.9394 37.2196 84.4274 36.8737 84.1385 37.2726C82.6876 39.2754 81.9397 41.7792 80.7148 43.932C80.0149 45.1599 79.2339 46.3248 78.404 47.4667C77.6341 48.5266 76.9772 49.6854 76.1902 50.7263C76.0272 50.9393 76.3022 51.2563 76.5232 51.0753Z" fill="#E1E1E1"/>
<path d="M66.1172 55.2039C67.668 53.891 68.184 50.9133 68.7059 49.0295C69.3689 46.6387 70.0858 44.014 69.8388 41.5112C69.7988 41.1033 69.1759 40.9903 69.0249 41.3892C68.2 43.582 67.931 46.0008 67.3641 48.2696C67.0431 49.5545 66.6871 50.8343 66.2902 52.0972C65.9892 53.0541 65.5522 53.999 65.6752 55.0139C65.7002 55.2109 65.9542 55.3409 66.1172 55.2039Z" fill="#E1E1E1"/>
<path d="M60.4727 59.0765C62.1366 57.4547 65.3553 58.7396 67.2621 59.2245C69.6879 59.8405 72.1026 60.5594 74.5084 61.2493C74.9653 61.3803 75.1243 60.6694 74.7334 60.4764C71.8306 59.0435 68.7909 58.1536 65.5932 57.6337C63.6714 57.3217 61.4426 57.0867 60.0718 58.7536C59.8548 59.0165 60.2428 59.3005 60.4727 59.0765Z" fill="#E1E1E1"/>
<path d="M43.1314 65.2249C46.861 65.3949 50.6257 66.0199 54.2833 66.7458C54.6773 66.8238 54.8623 66.2069 54.4823 66.0629C50.7817 64.654 47.091 64.191 43.1454 64.259C42.6015 64.269 42.5815 65.2009 43.1314 65.2249Z" fill="#E1E1E1"/>
<path d="M31.2615 71.1474C34.9242 71.6043 38.3998 72.0803 41.7965 73.6311C42.0715 73.7561 42.3265 73.3572 42.0765 73.1732C39.0378 70.9364 35.0492 69.5555 31.2725 70.3965C30.8806 70.4845 30.8076 71.0914 31.2615 71.1474Z" fill="#E1E1E1"/>
<path d="M34.8692 67.5537C37.042 65.9649 37.9629 62.4502 38.5928 59.9665C39.3598 56.9417 39.4987 53.815 38.7878 50.7763C38.6868 50.3474 37.9489 50.2314 37.9289 50.7633C37.8219 53.5961 37.6029 56.4448 36.988 59.2175C36.677 60.6244 36.2531 61.9923 35.7201 63.3311C35.2202 64.589 34.4792 65.8539 34.2892 67.2058C34.2462 67.5187 34.6122 67.7427 34.8692 67.5537Z" fill="#E1E1E1"/>
<path d="M90.2529 66.0609C87.1592 66.6708 84.2355 66.5968 81.1917 65.7869C80.8648 65.6999 80.7668 66.1879 81.0348 66.3278C83.9165 67.8457 87.4351 67.9707 90.3989 66.6328C90.6918 66.5018 90.6008 65.9929 90.2529 66.0609Z" fill="#E1E1E1"/>
<path d="M59.5398 85.629C56.9771 85.432 54.5063 85.299 52.0715 84.3761C49.6638 83.4622 47.469 82.1513 45.5662 80.4145C45.2302 80.1085 44.7132 80.6095 44.9942 80.9624C48.2849 85.093 54.3323 87.9308 59.6278 86.3949C60.0058 86.2849 59.9248 85.658 59.5398 85.629Z" fill="#E1E1E1"/>
<path d="M82.5076 27.4146C78.875 30.0353 77.0611 35.5748 77.1081 39.8694C77.1121 40.2653 77.7101 40.2373 77.7791 39.8784C78.208 37.6396 78.802 35.4258 79.7099 33.33C80.5748 31.3312 81.9047 29.6534 82.9366 27.7575C83.0776 27.4986 82.7246 27.2576 82.5076 27.4146Z" fill="#E1E1E1"/>
<path d="M63.4035 25.5108C60.3507 24.6778 58.6579 30.1523 58.033 32.1471C56.8511 35.9208 56.7031 39.9864 57.573 43.848C57.661 44.242 58.234 44.189 58.205 43.772C57.967 40.3663 58.2899 37.1056 59.1339 33.796C59.8638 30.9362 60.9517 27.6446 63.5124 25.9477C63.7074 25.8187 63.5904 25.5618 63.4035 25.5108Z" fill="#E1E1E1"/>
<path d="M56.3481 51.3363C56.9091 47.5476 57.1071 43.678 56.3711 39.8964C56.3021 39.5394 55.8192 39.6084 55.8202 39.9634C55.8282 43.719 55.8512 47.4537 55.3452 51.1853C55.2562 51.8322 56.2521 51.9842 56.3481 51.3363Z" fill="#E1E1E1"/>
<path d="M55.1792 39.0525C55.2172 38.3945 55.3142 37.7436 55.5162 37.1136C55.6892 36.5787 55.9192 36.0527 55.9882 35.4918C56.0352 35.1048 55.5812 34.9469 55.3292 35.2028C54.4003 36.1517 54.3583 37.7936 54.4273 39.0405C54.4513 39.4624 55.1532 39.4824 55.1792 39.0525Z" fill="#E1E1E1"/>
<path d="M48.9898 27.9515C47.057 30.7902 45.8641 33.9369 45.9191 37.3856C45.9251 37.7596 46.5051 37.7456 46.5631 37.3956C47.076 34.2669 48.0069 31.2402 49.7808 28.5885C50.1417 28.0495 49.3588 27.4086 48.9898 27.9515Z" fill="#E1E1E1"/>
<path d="M40.7456 37.6236C40.9606 36.1467 41.6695 34.8319 42.3265 33.513C42.5075 33.15 42.0535 32.8661 41.7545 33.055C40.2197 34.0199 39.5477 35.6718 39.2858 37.4056C39.1448 38.3425 40.6086 38.5645 40.7456 37.6236Z" fill="#E1E1E1"/>
<path d="M38.1439 41.8292C37.9919 41.3192 37.5189 40.9783 36.977 41.0163C36.382 41.0573 35.9581 41.9472 35.7821 42.4431C35.4561 43.367 35.8481 45.2129 37.185 44.7139C37.3669 44.6459 37.4109 44.3799 37.252 44.263C36.2701 43.535 36.68 42.6511 37.254 41.7812C37.152 41.8372 37.051 41.8942 36.949 41.9502C37.194 41.9032 37.3519 41.9872 37.4859 42.1952C37.7359 42.5791 38.2599 42.2172 38.1439 41.8292Z" fill="#E1E1E1"/>
</svg>
