<svg width="87" height="86" viewBox="0 0 87 86" fill="none" xmlns="http://www.w3.org/2000/svg">
<path d="M75.6589 40.7512C69.3379 41.4656 63.3891 38.7456 59.5625 33.7057C56.0475 29.076 51.7137 21.2164 55.7901 15.7032C56.8436 14.2795 58.4346 13.5209 59.9839 12.7598C61.4222 12.0543 62.8782 11.1669 64.3833 10.6255C67.3268 9.56398 70.5479 9.69903 73.3462 11.1114C76.2771 12.5907 79.4098 14.6834 81.6203 17.1093C83.7903 19.4923 85.0406 22.6452 85.3889 25.8309C85.7648 29.2666 85.1403 32.9332 83.1784 35.8249C82.3028 37.1161 81.1547 38.4654 79.8653 39.364C78.5847 40.2564 77.1868 40.3914 75.6652 40.3548C74.9296 40.3372 74.7555 41.4567 75.4835 41.6385C78.4371 42.3781 80.8872 40.8471 82.8037 38.7039C85.1782 36.0508 86.5786 32.9787 86.918 29.4206C87.2536 25.913 86.5559 22.2552 84.8817 19.1502C83.0018 15.6616 79.8211 13.4616 76.6342 11.2641C73.668 9.2194 70.4507 7.89285 66.8032 8.56054C63.403 9.1828 59.8338 10.5775 56.9117 12.4203C53.9052 14.3161 52.4315 17.6571 52.5009 21.1609C52.5754 24.9108 54.3089 28.4538 56.2002 31.6054C58.374 35.2291 61.2178 38.7178 65.2085 40.3927C68.6604 41.8417 72.0884 42.0058 75.7194 41.2586C75.9983 41.2005 75.9529 40.7171 75.6589 40.7512Z" fill="#CAD0CD"/>
<path d="M80.722 39.725C77.7432 40.1541 74.8085 41.5388 72.1048 42.8174C69.3922 44.101 66.7805 45.5676 64.2572 47.1908C61.9937 48.6461 59.7 50.2705 57.0291 50.8637C54.3392 51.462 51.7036 50.6164 49.4124 49.2103C45.3839 46.7377 41.4563 42.8476 39.3241 38.6017C38.2176 36.3992 37.6839 33.8382 38.3879 31.4287C39.179 28.7188 41.1876 26.5756 43.3021 24.8023C45.9781 22.5581 48.9001 20.5916 51.7061 18.5179C54.5625 16.4062 57.617 14.4234 60.2653 12.053C60.7661 11.6037 60.1353 10.7403 59.5562 11.0963C56.5269 12.9529 53.75 15.3107 50.9087 17.4425C48.2731 19.4191 45.5769 21.3426 43.0447 23.4505C38.9544 26.8558 35.6476 31.4691 37.2095 37.0328C38.5696 41.8783 42.6208 45.9526 46.5017 48.944C48.6011 50.5621 50.9983 51.9416 53.6579 52.3228C56.3831 52.7128 58.967 51.8886 61.3339 50.5835C64.4313 48.8745 67.294 46.7806 70.4192 45.1057C73.8231 43.2818 77.5501 42.0739 80.915 40.2147C81.19 40.0595 81.0058 39.6834 80.722 39.725Z" fill="#CAD0CD"/>
<path d="M60.1567 11.4547C59.5247 10.1193 58.1557 9.58165 56.7313 9.88583C54.9776 10.2594 53.4674 11.9066 52.7419 13.4793C52.6687 13.6383 52.8492 13.7961 52.9892 13.6724C53.9809 12.7952 54.6761 11.6567 55.886 11.0294C57.0795 10.4096 58.9191 10.4841 59.729 11.6907C59.9032 11.9508 60.293 11.7412 60.1567 11.4547Z" fill="#CAD0CD"/>
<path d="M48.6932 11.0761C45.7258 10.0398 42.9463 8.37122 39.7139 8.38005C36.8335 8.38889 34.6761 10.6469 33.5847 13.1524C33.4598 13.4401 33.5608 13.6951 33.8535 13.8125C34.4326 14.046 34.9663 14.4473 35.4924 14.7806C35.4962 14.5269 35.4987 14.2732 35.5025 14.0195C33.1406 15.1769 29.2623 14.9383 28.7286 18.3323C28.4851 19.881 30.1328 20.6181 30.1631 22.0394C30.1959 23.6436 27.8378 24.411 26.7301 25.1292C24.695 26.4469 23.6125 29.3171 24.2232 31.6748C24.6054 33.1503 25.6022 34.1348 26.6544 35.1774C27.3559 35.8728 27.9337 36.5721 28.1432 37.5553C28.3072 38.3253 28.2491 39.1343 28.2769 39.9169C28.3236 41.2762 28.5948 42.5346 29.5916 43.5267C30.9516 44.8823 32.6461 45.5058 33.6655 47.24C34.584 48.8013 35.4192 50.2718 36.7313 51.5504C38.104 52.8883 39.7265 53.9182 41.4184 54.803C43.1305 55.6979 44.9158 56.4666 46.6897 57.2276C48.1886 57.8701 49.7518 58.4722 51.4096 58.4557C53.0788 58.4406 54.6748 57.8739 56.2292 57.3261C58.2239 56.6243 60.2148 55.9099 62.1956 55.1728C64.3203 54.3827 66.4399 53.5799 68.5557 52.7658C70.5327 52.0047 72.7432 51.3838 74.565 50.2857C75.8847 49.4905 76.9155 48.2523 76.8146 46.638C76.7199 45.1284 75.91 43.7097 75.1555 42.4387C74.6912 41.6574 73.4573 42.3352 73.9178 43.1215C74.536 44.1755 75.2816 45.3707 75.38 46.6203C75.5327 48.5767 73.2668 49.3744 71.7931 49.9461C68.4144 51.2575 65.0192 52.5286 61.6152 53.7743C60.0546 54.3448 58.4951 54.9204 56.9332 55.4884C55.2829 56.0892 53.5746 56.8402 51.8045 56.9828C50.2653 57.1065 48.8055 56.6319 47.3899 56.0803C45.7132 55.4253 44.0541 54.7159 42.453 53.893C40.8583 53.0738 39.3026 52.1272 37.9287 50.9698C36.5497 49.8073 35.5958 48.4416 34.6584 46.9182C33.9203 45.7178 33.0776 44.8457 31.9042 44.0644C31.2406 43.6226 30.5189 43.2124 29.9991 42.5952C29.3455 41.8164 29.2257 40.9064 29.2017 39.9295C29.1752 38.8642 29.2597 37.7648 28.9178 36.7362C28.4069 35.1988 27.0518 34.3847 26.0349 33.2235C23.9683 30.8633 24.5802 27.3014 27.1994 25.6681C28.9544 24.5751 32.1717 23.2473 30.3271 20.7216C29.7467 19.9265 29.0427 19.2891 29.4149 18.1985C29.6862 17.4021 30.346 16.9869 31.0538 16.6246C32.6196 15.8269 34.3783 15.6679 35.9239 14.7869C36.2052 14.6266 36.2317 14.1886 35.934 14.0258C35.3889 13.7279 34.7795 13.4578 34.2951 13.0653C34.3165 13.2458 34.3392 13.4262 34.3619 13.6067C35.1467 12.573 35.833 11.4535 36.8752 10.6495C38.0977 9.7066 39.4565 9.57281 40.9428 9.76466C43.5456 10.0991 46.0134 11.4004 48.6554 11.3487C48.8156 11.3449 48.8408 11.1278 48.6932 11.0761Z" fill="#CAD0CD"/>
<path d="M73.5632 42.9903C74.0805 44.1843 74.0452 45.5929 73.5052 46.773C72.7545 48.4126 71.5925 48.9124 69.8615 48.9982C68.6263 49.0588 67.4997 49.1636 66.349 49.6457C65.1138 50.1632 64.0137 50.9382 62.9198 51.6993C61.9269 52.3897 60.9289 53.1117 59.8186 53.6039C58.3488 54.2552 57.1817 54.0141 55.6475 53.9081C54.3783 53.8198 53.5279 54.4685 52.4707 55.0416C51.2254 55.7168 49.7518 55.8456 48.3702 55.6007C45.4444 55.0832 43.1217 53.383 40.9958 51.4027C38.2845 48.8771 35.8772 46.0145 33.6138 43.0875C33.041 42.3466 32.3559 41.5703 32.067 40.659C31.8411 39.9459 31.9395 39.2239 31.9736 38.4944C32.0266 37.3685 31.8727 36.3436 31.1056 35.474C30.2388 34.492 28.9746 33.9859 27.887 33.3068C26.2115 32.2592 25.4104 30.7257 25.8621 28.7466C26.3251 26.7195 27.94 25.2402 29.536 24.0349C30.558 23.2624 32.3092 22.4799 32.4619 21.0157C32.5464 20.2004 31.9622 19.693 31.7591 18.9584C31.532 18.1354 31.9976 17.2835 32.5931 16.742C33.9292 15.5252 36.0034 15.8193 37.6461 16.0024C38.287 16.0743 38.591 15.0267 37.9905 14.7642C36.2052 13.9841 37.2726 11.7778 38.5923 11.1581C39.9738 10.5093 41.7061 10.5712 43.1936 10.6684C46.3125 10.8729 49.6168 11.9268 51.4058 14.6594C51.6581 15.0444 52.1515 15.2476 52.5804 14.9989C54.7126 13.7696 55.6211 11.4901 57.2562 9.77224C57.8176 9.1828 58.5607 8.76754 59.3114 9.27872C60.0457 9.77855 59.8186 10.4639 59.3001 11.0609C58.644 11.8157 59.7126 12.9416 60.3965 12.1868C61.1737 11.3285 61.7553 10.2102 61.2771 9.05532C60.9062 8.16043 60.0079 7.5609 59.078 7.37914C57.6952 7.10904 56.5673 7.91809 55.7195 8.93036C54.4389 10.4589 53.5229 12.4632 51.7465 13.483C52.1376 13.5966 52.53 13.7102 52.9211 13.8226C50.2829 9.91234 45.2173 8.78647 40.7535 9.19921C38.9166 9.36834 36.7477 9.98807 35.9781 11.8599C35.3195 13.4616 35.8444 15.293 37.4783 15.9784C37.5401 15.5429 37.6019 15.1087 37.6637 14.6733C35.0243 14.4196 31.2368 14.5546 30.5895 17.8502C30.4899 18.3601 30.5189 18.8814 30.693 19.3698C30.8078 19.6942 31.074 19.9744 31.175 20.2912C31.4437 21.1407 31.1157 21.6102 30.5113 22.1176C29.0011 23.3823 27.3294 24.3592 26.1245 25.9622C24.4011 28.2518 24.0806 31.6584 26.5358 33.5555C27.8908 34.6031 30.1252 35.1092 30.8822 36.7677C31.5206 38.1637 30.8002 39.7894 31.4185 41.2396C32.9526 44.8343 35.9605 48.1425 38.7929 50.7577C41.1018 52.8895 43.6655 55.0731 46.6064 56.2848C47.8441 56.7947 49.2774 57.0875 50.6173 56.9298C52.1376 56.7518 53.1078 55.9024 54.4237 55.2473C55.3725 54.7752 56.1573 55.1034 57.1338 55.1753C57.7987 55.2246 58.4787 55.1476 59.1209 54.9709C60.4621 54.6023 61.6506 53.8362 62.7848 53.0561C64.1512 52.1158 65.4961 51.0531 67.0656 50.4674C68.721 49.849 70.5176 50.2541 72.1035 49.3933C74.512 48.0869 75.9301 45.0186 74.4237 42.522C74.0894 41.9717 73.316 42.421 73.5632 42.9903Z" fill="#CAD0CD"/>
<path d="M82.6586 37.8519C85.081 44.645 85.4974 51.8571 83.4636 58.8104C81.3667 65.9771 76.9508 72.346 70.9125 76.7485C64.6685 81.3012 57.0291 83.8104 49.3178 84.0439C41.4437 84.2812 33.7891 82.0004 27.1187 77.863C14.8174 70.2319 5.56307 57.7792 2.79623 43.4573C0.151776 29.7689 7.97917 16.328 19.1273 8.7991C24.9196 4.8876 31.6039 2.48568 38.6125 2.23829C45.6627 1.98964 53.3034 3.41969 59.2042 7.4675C60.4684 8.33461 61.6064 9.35319 62.6107 10.5131C63.5405 11.5873 65.1151 10.0436 64.189 8.97328C59.4187 3.45503 51.7402 1.04553 44.7164 0.254143C37.1313 -0.59909 29.5537 0.69843 22.723 4.11136C10.0206 10.4601 -0.236818 23.7231 0.00416082 38.3606C0.127804 45.8428 3.08768 53.2442 6.69984 59.6939C10.4268 66.3494 15.4962 71.8046 21.5232 76.4532C27.9905 81.4413 35.5416 84.9312 43.7134 85.7895C51.8449 86.644 60.1996 84.8744 67.3369 80.8935C80.5895 73.4997 88.8749 57.7212 85.1491 42.6167C84.7177 40.8673 84.1171 39.2088 83.3286 37.5894C83.1519 37.2246 82.5186 37.4607 82.6586 37.8519Z" fill="#CAD0CD"/>
<path d="M78.6326 40.0355C75.6576 40.4306 72.7394 40.558 69.748 40.659C69.4124 40.6704 69.3556 41.1197 69.6672 41.2295C72.6258 42.2746 76.079 42.0159 78.9329 40.8042C79.4035 40.6047 79.0591 39.9787 78.6326 40.0355Z" fill="#CAD0CD"/>
<path d="M54.6205 72.0052C54.3909 73.0478 53.6011 73.9452 52.6523 74.411C52.969 74.5498 53.2857 74.6874 53.6024 74.8262C53.4699 74.31 53.0132 73.0566 53.5671 72.6313C53.7437 72.495 53.9594 72.5391 54.1575 72.6262C54.4136 72.7373 54.3745 72.7323 54.3758 73.0074C54.377 73.3255 54.7631 73.6259 55.0609 73.4189C55.6072 73.039 55.6097 72.3801 55.2097 71.8778C54.8136 71.3792 54.184 71.152 53.5557 71.2441C51.7212 71.5117 51.9067 73.8455 52.3331 75.1418C52.4505 75.5002 52.9122 75.8183 53.2832 75.557C54.4931 74.705 55.0647 73.5363 54.9953 72.0583C54.9877 71.8525 54.6698 71.7818 54.6205 72.0052Z" fill="#CAD0CD"/>
<path d="M62.3104 74.7391C62.2814 74.7265 62.2814 74.7278 62.3129 74.7442C62.2814 74.7177 62.2789 74.7177 62.3054 74.7442C62.2801 74.7076 62.2764 74.7063 62.2965 74.7391C62.2827 74.6975 62.2814 74.6949 62.2928 74.7316C62.3003 74.7694 62.3016 74.7669 62.2965 74.7227C62.2978 74.7416 62.2991 74.7593 62.2978 74.7783C62.294 74.8186 62.2965 74.8161 62.3028 74.7694C62.2991 74.7883 62.2953 74.806 62.2902 74.8237C62.2764 74.8641 62.2801 74.8603 62.3003 74.8098C62.2928 74.8262 62.2839 74.8426 62.2738 74.859C62.2486 74.8969 62.2549 74.8906 62.2928 74.8388C62.2814 74.8515 62.2688 74.8641 62.2549 74.8754C62.3104 74.8363 62.3192 74.8287 62.2789 74.8515C62.342 74.8287 62.3521 74.8237 62.3079 74.8363C62.3457 74.8262 62.3836 74.8262 62.4214 74.8363C62.3849 74.825 62.3861 74.8262 62.4252 74.8414C62.4631 74.859 62.4669 74.8578 62.4341 74.8401C62.4984 74.8944 62.5135 74.9032 62.477 74.8679C62.5754 74.9764 62.5135 74.912 62.4883 74.8603C62.4303 74.7379 62.4984 74.9411 62.4858 74.8552C62.4643 74.7189 62.4744 74.9348 62.4833 74.8464C62.4971 74.7063 62.4606 74.9272 62.4833 74.8414C62.5047 74.7581 62.4126 74.9587 62.4871 74.8464C62.3962 74.9827 62.453 74.9083 62.4934 74.8679C62.5615 74.801 62.6082 74.7215 62.6347 74.6293C62.6473 74.5826 62.6372 74.6041 62.6056 74.6912C62.7104 74.4652 62.6763 74.1825 62.4378 74.05C61.8789 73.7395 61.402 74.3314 61.4411 74.8616C61.4752 75.3159 61.7969 75.759 62.2965 75.7249C62.7306 75.6946 63.0485 75.3361 63.0384 74.9019C63.0296 74.5132 62.7962 74.1876 62.3987 74.1434C62.2499 74.127 62.1136 74.2683 62.0972 74.4046C62.0732 74.5624 62.1653 74.6836 62.3104 74.7391Z" fill="#CAD0CD"/>
<path d="M73.8875 67.9158C73.7891 68.2099 73.5986 68.5658 73.5582 68.8687C73.533 68.9318 73.5077 68.9937 73.4812 69.0568C73.5872 69.0656 73.6099 69.053 73.5481 69.0202C73.4711 68.9546 73.4144 68.8826 73.3551 68.7993C73.0649 68.3866 72.9337 67.7694 72.9223 67.2721C72.9122 66.8568 73.1418 66.049 73.721 66.1247C74.1651 66.1828 74.2483 66.6183 74.107 66.9591C74.0137 67.1862 74.3228 67.4046 74.5183 67.2834C75.2602 66.8215 74.9246 65.6615 74.2572 65.2955C73.2882 64.7641 72.2006 65.611 71.9054 66.5362C71.6114 67.4576 71.9079 69.0114 72.7066 69.6298C73.0207 69.8734 73.5065 70.0224 73.8459 69.7434C73.9783 69.6349 74.0364 69.496 74.083 69.342C74.2067 68.9356 74.2332 68.456 74.319 68.0369C74.3783 67.753 73.9796 67.6406 73.8875 67.9158Z" fill="#CAD0CD"/>
<path d="M80.9882 60.0701C81.0815 59.9199 81.1749 59.7684 81.2695 59.6182C81.3604 59.4718 81.4676 59.3494 81.4234 59.1676C81.3969 59.0578 81.2935 59.0149 81.1913 59.0275C81.0147 59.0502 80.9263 59.2269 80.8254 59.3569C80.7169 59.4983 80.6071 59.6397 80.4986 59.781C80.2816 60.065 80.7901 60.3881 80.9882 60.0701Z" fill="#CAD0CD"/>
<path d="M38.6617 79.0861C38.668 78.9485 38.6087 78.845 38.5179 78.7491C38.5545 78.8147 38.591 78.8803 38.6276 78.9447C38.6138 78.8967 38.5961 78.8513 38.5746 78.8059C38.5305 78.7276 38.4712 78.667 38.3942 78.6216C38.4359 78.6481 38.4359 78.6418 38.3917 78.6027C38.3173 78.5269 38.2289 78.4739 38.1267 78.4461C37.9375 78.3729 37.7571 78.3729 37.5577 78.383C37.2713 78.3982 37.0316 78.5812 36.99 78.874C36.9483 79.1668 37.1262 79.4079 37.3988 79.5038C37.5868 79.5695 37.7609 79.62 37.9627 79.6036C38.2024 79.5846 38.4447 79.4698 38.581 79.2666C38.5267 79.3196 38.4724 79.3726 38.4169 79.4256C38.5456 79.3511 38.6541 79.2401 38.6617 79.0861Z" fill="#CAD0CD"/>
<path d="M44.3922 80.7799C44.6925 80.7294 44.7783 80.4164 44.7417 80.1577C44.7265 80.2662 44.7101 80.376 44.695 80.4846C44.6975 80.4808 44.6988 80.4782 44.7013 80.4745C44.8628 80.2182 44.7341 79.9216 44.5146 79.7601C44.184 79.5177 43.7122 79.7475 43.6112 80.116C43.533 80.4013 43.6667 80.7092 43.9229 80.8544C44.097 80.9541 44.3506 80.9364 44.4944 80.7837C44.6483 80.6196 44.6635 80.4164 44.5789 80.2145C44.6143 80.2965 44.6357 80.3684 44.6105 80.4581C44.5878 80.5477 44.5297 80.6083 44.4376 80.6436C44.2585 80.7585 44.2585 80.7749 44.4351 80.6916C44.4414 80.6878 44.4477 80.6852 44.454 80.6815C44.2004 80.7345 44.1752 80.7458 44.3771 80.7168C44.4692 80.689 44.555 80.6461 44.6231 80.5767C44.4477 80.5982 44.2711 80.6196 44.0957 80.6411C44.1525 80.6739 44.0452 80.5969 44.0326 80.5792C43.9885 80.5174 43.9658 80.4404 43.9872 80.3621C43.914 80.6209 44.1474 80.8216 44.3922 80.7799Z" fill="#CAD0CD"/>
<path d="M26.2898 70.1549C26.0475 70.6762 25.8166 71.2025 25.5328 71.7011C25.746 71.6455 25.9592 71.5887 26.1737 71.5332C25.4634 71.128 25.0924 70.1536 25.7939 69.5301C25.5429 69.5263 25.2918 69.5238 25.0407 69.52C25.5202 70.0375 25.958 70.9412 25.9706 71.6493C25.9769 71.9775 26.4727 72.0709 26.5547 71.7326C26.6746 71.2353 26.7995 70.6762 26.6569 70.1738C26.5068 69.6412 26.1876 69.1691 25.804 68.7766C25.5996 68.5671 25.2615 68.5696 25.0508 68.7665C23.9973 69.756 24.2572 72.0254 25.8141 72.3889C26.0526 72.4445 26.3314 72.317 26.3894 72.062C26.5194 71.4991 26.7074 70.9538 26.8828 70.4035C26.99 70.0615 26.4475 69.8179 26.2898 70.1549Z" fill="#CAD0CD"/>
<path d="M11.5446 48.8001C11.6027 49.0651 11.5017 49.4451 11.1762 49.4779C11.339 49.5473 11.5018 49.618 11.6632 49.6874C11.344 49.2885 10.8987 48.511 11.3731 48.0567C11.5081 47.9279 11.6645 47.8774 11.8083 47.9355C12.1036 48.0529 12.0216 48.3204 11.9257 48.5527C11.8424 48.7534 12.0897 49.0058 12.2916 48.9288C12.8782 48.7054 12.906 48.097 12.7622 47.5631C12.578 46.8816 11.8374 46.4638 11.1472 46.6607C10.4041 46.874 9.88303 47.5859 9.78588 48.3331C9.66981 49.2204 10.1139 50.0029 10.669 50.6567C10.8646 50.8865 11.2469 50.9193 11.5005 50.7804C12.2436 50.3715 12.6802 49.4084 12.4013 48.588C12.2222 48.0529 11.4223 48.2359 11.5446 48.8001Z" fill="#CAD0CD"/>
<path d="M20.5807 16.8947C20.2287 17.0373 19.8338 17.0159 19.4957 16.8505C19.5626 16.9692 19.6294 17.0878 19.6963 17.2052C19.724 16.9869 19.8982 16.7773 20.0962 16.6877C20.3536 16.5716 20.5618 16.6852 20.823 16.6852C21.3541 16.6839 21.5295 15.9897 21.093 15.7121C20.6375 15.423 20.0029 15.6464 19.6042 15.9355C19.1815 16.2409 18.9115 16.6663 18.8863 17.1951C18.8775 17.3895 19.0188 17.5258 19.1841 17.5914C19.7505 17.8136 20.3675 17.758 20.8999 17.4741C21.2835 17.2671 20.963 16.7395 20.5807 16.8947Z" fill="#CAD0CD"/>
<path d="M9.55752 22.1302C9.17523 22.6894 8.55828 23.0074 7.88076 22.9658C8.02333 23.1122 8.1659 23.2586 8.30847 23.405C8.28071 22.9039 8.52169 22.7197 8.96327 22.5821C9.29888 22.4773 9.33799 21.9788 8.9721 21.8791C8.07506 21.6367 7.2739 22.6818 7.45432 23.5035C7.49217 23.6726 7.6852 23.8506 7.86941 23.8316C8.8043 23.7382 9.6206 23.275 10.0698 22.4294C10.2514 22.0911 9.772 21.8147 9.55752 22.1302Z" fill="#CAD0CD"/>
<path d="M23.779 8.32325C26.5282 8.48608 28.7235 9.08182 30.8797 10.8653C31.0248 10.9852 31.3049 10.8325 31.1737 10.6469C29.6067 8.42675 26.3806 7.05981 23.7349 7.94586C23.5305 8.01402 23.5545 8.30937 23.779 8.32325Z" fill="#CAD0CD"/>
<path d="M27.8416 7.00302C28.6201 7.44099 29.4162 7.83353 30.2867 8.07082C30.4192 8.10742 30.4899 7.92567 30.3788 7.85372C29.6206 7.36021 28.8005 7.02826 27.9539 6.73796C27.7962 6.68368 27.6991 6.92224 27.8416 7.00302Z" fill="#CAD0CD"/>
<path d="M48.6995 3.65445C49.1701 3.83873 49.7379 4.51652 50.0319 4.90906C50.4141 5.41772 50.5908 5.91754 50.7308 6.5297C50.7762 6.72786 51.098 6.74553 51.1396 6.53475C51.2759 5.8456 51.098 5.05674 50.7169 4.46982C50.5201 4.1669 50.2501 3.88669 49.9511 3.68475C49.5524 3.4159 49.2294 3.45503 48.7878 3.33638C48.5784 3.27959 48.5052 3.57872 48.6995 3.65445Z" fill="#CAD0CD"/>
<path d="M51.0425 4.56827C51.349 5.36471 51.6253 6.19396 52.0695 6.92728C52.1603 7.07748 52.4076 6.99166 52.3622 6.81243C52.1515 5.98191 51.7591 5.20189 51.4083 4.42438C51.3162 4.22243 50.9617 4.35875 51.0425 4.56827Z" fill="#CAD0CD"/>
<path d="M59.266 63.4918C61.2998 66.7609 59.7984 70.7153 57.7041 73.4605C57.5312 73.6877 57.8593 73.9907 58.0864 73.8531C59.7543 72.8433 60.6299 70.9816 60.9112 69.1048C61.2418 66.9048 60.6652 65.1907 59.5209 63.3517C59.4225 63.194 59.1676 63.3328 59.266 63.4918Z" fill="#CAD0CD"/>
<path d="M62.7848 62.241C64.9233 64.6253 64.3871 68.1102 62.5602 70.4389C62.4214 70.6156 62.5968 70.9576 62.8252 70.7961C64.1613 69.8532 64.8426 68.1569 64.9259 66.564C65.0205 64.7401 64.3417 63.2356 63.0598 61.9734C62.8832 61.8005 62.6208 62.058 62.7848 62.241Z" fill="#CAD0CD"/>
<path d="M61.6973 63.637C61.7755 64.6783 61.831 65.7865 62.2524 66.7571C62.3382 66.954 62.6094 66.8417 62.6233 66.6637C62.7053 65.6312 62.3975 64.5723 62.1388 63.5852C62.077 63.3467 61.6771 63.3745 61.6973 63.637Z" fill="#CAD0CD"/>
<path d="M82.1539 65.4545C82.7797 62.3773 80.944 58.8609 77.9236 57.8171C77.7028 57.7401 77.5918 58.0607 77.7709 58.1793C80.2892 59.8555 81.6695 62.313 81.5711 65.3725C81.5597 65.7019 82.0858 65.7903 82.1539 65.4545Z" fill="#CAD0CD"/>
<path d="M83.7802 61.9091C83.7134 60.0461 82.8945 57.9206 81.0866 57.1077C80.7939 56.9765 80.4545 57.3236 80.7156 57.5823C82.0202 58.8735 83.1002 60.0511 83.3248 61.9621C83.3551 62.2221 83.7903 62.1691 83.7802 61.9091Z" fill="#CAD0CD"/>
<path d="M29.0806 80.1198C31.2633 79.187 33.2744 77.2647 34.825 75.5103C36.3718 73.7597 37.7255 71.7478 38.5633 69.5566C38.6667 69.2865 38.2453 69.1224 38.1053 69.3635C36.8865 71.4537 35.6312 73.4504 33.9759 75.2364C32.3849 76.953 30.5176 78.1773 28.7298 79.6477C28.4523 79.8749 28.7967 80.241 29.0806 80.1198Z" fill="#CAD0CD"/>
<path d="M35.6829 69.8015C34.0314 72.6553 31.5926 74.748 28.9506 76.6526C28.7917 76.7674 28.9153 76.9946 29.097 76.9189C32.2411 75.6075 34.4654 72.9531 35.968 69.9681C36.0627 69.78 35.7914 69.6147 35.6829 69.8015Z" fill="#CAD0CD"/>
<path d="M32.3798 70.6787C31.8361 71.8285 30.9289 72.4495 29.8313 73.0125C29.6534 73.1033 29.7758 73.3419 29.9511 73.3179C31.2582 73.1311 32.2612 72.0709 32.7684 70.9059C32.8795 70.6459 32.5048 70.4136 32.3798 70.6787Z" fill="#CAD0CD"/>
<path d="M23.5053 47.2855C18.8939 49.4741 14.8565 53.325 12.8126 58.0582C12.7571 58.1869 12.9287 58.298 13.0069 58.1718C15.7082 53.7781 19.2522 50.3185 23.9582 48.1071C24.5045 47.8509 24.0478 47.028 23.5053 47.2855Z" fill="#CAD0CD"/>
<path d="M19.8035 47.1025C19.2951 47.6351 18.7803 48.1627 18.2832 48.7067C18.1684 48.8329 18.3375 49.0046 18.4674 48.896C19.0327 48.4227 19.5815 47.9292 20.1353 47.4432C20.365 47.2413 20.0168 46.8803 19.8035 47.1025Z" fill="#CAD0CD"/>
<path d="M20.0912 33.3182C17.6057 31.796 14.5525 31.5448 11.8071 32.5016C9.30771 33.3725 6.5661 35.4109 5.98447 38.165C5.92391 38.4489 6.27844 38.5916 6.44246 38.3581C7.1881 37.2991 7.81894 36.3096 8.83584 35.4702C9.8313 34.6485 11.0034 33.9758 12.2247 33.5555C14.6812 32.7111 17.4013 32.73 19.7379 33.9215C20.1366 34.126 20.4785 33.5555 20.0912 33.3182Z" fill="#CAD0CD"/>
<path d="M15.939 34.3835C13.5116 33.6653 10.6022 35.1483 9.48308 37.3622C9.37205 37.5806 9.64583 37.8216 9.83382 37.6361C11.6178 35.8665 13.4763 35.1559 15.934 34.805C16.1611 34.7735 16.1333 34.4415 15.939 34.3835Z" fill="#CAD0CD"/>
<path d="M16.7213 30.453C14.7505 29.9191 12.5578 29.7765 10.6665 30.6815C10.4949 30.7635 10.5618 31.0728 10.7599 31.0538C12.7167 30.8658 14.6219 30.6121 16.5812 30.963C16.9093 31.021 17.0556 30.5427 16.7213 30.453Z" fill="#CAD0CD"/>
<path d="M61.8714 12.3004C56.3793 14.2012 53.9178 22.3246 58.5885 26.4115C58.8055 26.6009 59.1865 26.3686 59.02 26.0922C57.7003 23.9074 56.8095 21.5219 57.3394 18.9281C57.8857 16.251 59.7858 14.2277 62.13 12.9605C62.4757 12.7724 62.2612 12.1653 61.8714 12.3004Z" fill="#CAD0CD"/>
<path d="M66.1282 11.6971C62.998 12.5389 60.4116 14.5723 59.2383 17.6444C59.1525 17.8679 59.4792 17.9663 59.6004 17.7972C61.3251 15.3851 63.5532 13.3227 66.2998 12.1363C66.5496 12.0278 66.3831 11.6276 66.1282 11.6971Z" fill="#CAD0CD"/>
<path d="M81.2758 36.4736C79.3253 37.9996 76.9193 38.8465 74.4464 38.9235C72.0366 38.998 69.9864 38.2659 67.7924 37.3938C67.54 37.2928 67.3155 37.6815 67.5199 37.8545C71.4853 41.2207 78.0712 40.0734 81.8284 37.0416C82.2271 36.7198 81.6707 36.1644 81.2758 36.4736Z" fill="#CAD0CD"/>
<path d="M78.3424 35.5207C76.9433 37.0997 74.7101 37.7939 72.6498 37.3559C72.4757 37.3193 72.4063 37.5654 72.5766 37.6235C74.8312 38.3871 77.1476 37.6752 78.6566 35.8425C78.8358 35.6229 78.5367 35.3011 78.3424 35.5207Z" fill="#CAD0CD"/>
<path d="M77.2019 29.9974C75.5314 27.1701 70.9579 25.1178 72.9072 21.1495C73.0258 20.9072 72.7444 20.6825 72.5362 20.8592C71.2405 21.9573 71.3515 23.7105 71.9735 25.1532C72.8958 27.2913 75.0533 28.8652 76.812 30.2864C77.0114 30.4467 77.3533 30.2549 77.2019 29.9974Z" fill="#CAD0CD"/>
<path d="M82.3583 21.0776C83.0081 21.4095 83.4673 22.4319 83.1595 23.1261C83.0232 23.4328 83.4005 23.6474 83.6049 23.3861C84.0048 22.8711 84.0767 22.2628 83.8257 21.6569C83.5822 21.0687 83.0838 20.7507 82.4681 20.6825C82.2574 20.6598 82.1767 20.9842 82.3583 21.0776Z" fill="#CAD0CD"/>
<path d="M65.2299 53.2821C65.9415 53.6948 66.7818 54.2931 67.3028 54.9267C67.9412 55.7017 68.1519 56.5738 68.4497 57.5015C68.5431 57.7918 69.0591 57.8815 69.1133 57.5104C69.2698 56.4388 68.8168 55.3634 68.1482 54.5342C67.3647 53.5635 66.513 53.0612 65.3056 53.012C65.1593 53.0044 65.1075 53.2101 65.2299 53.2821Z" fill="#CAD0CD"/>
</svg>
