<svg width="180" height="84" viewBox="0 0 180 84" fill="none" xmlns="http://www.w3.org/2000/svg">
<path d="M21.7337 82.5432C20.4143 81.3945 20.0651 79.8985 20.0651 78.6029C20.0651 77.6937 20.347 76.1184 21.6404 74.943C22.6097 74.0623 23.8888 73.5272 25.8939 73.5272C26.7296 73.5272 27.2268 73.5815 27.8461 73.6607C28.3577 73.7275 28.7895 73.8477 29.1925 73.8878C29.3406 73.9012 29.3953 73.9679 29.3953 74.0481C29.3953 74.1549 29.3549 74.3161 29.328 74.7827C29.3011 75.2235 29.3146 75.9581 29.2876 76.2253C29.2742 76.4256 29.2472 76.5325 29.1261 76.5325C29.0184 76.5325 28.9914 76.4256 28.9914 76.2386C28.978 75.8246 28.8029 75.358 28.4664 75.0098C28.0221 74.5432 26.9719 74.1817 25.7333 74.1817C24.5619 74.1817 23.7945 74.4755 23.203 75.0098C22.2193 75.9047 21.9635 77.1736 21.9635 78.4693C21.9635 81.6483 24.4004 83.2244 26.2054 83.2244C27.4036 83.2244 28.1298 83.0917 28.6683 82.4764C28.8981 82.2226 29.0722 81.8353 29.127 81.5948C29.1674 81.382 29.1934 81.3277 29.3011 81.3277C29.3953 81.3277 29.4232 81.4212 29.4232 81.5289C29.4232 81.6892 29.2607 82.8504 29.127 83.3045C29.0596 83.5325 29.0049 83.5984 28.776 83.6928C28.2375 83.9065 27.2151 84 26.3535 84C24.5072 83.9991 22.9589 83.5984 21.7337 82.5432Z" fill="#CAD0CD"/>
<path d="M31.0505 77.5886C31.0505 75.5583 31.0505 75.1843 31.0244 74.756C30.9975 74.3019 30.8898 74.0882 30.4446 73.9955C30.3369 73.9688 30.108 73.9555 29.9195 73.9555C29.7714 73.9555 29.6906 73.9288 29.6906 73.8353C29.6906 73.7418 29.7858 73.7142 29.9868 73.7142C30.7004 73.7142 31.5486 73.7542 31.9525 73.7542C32.2747 73.7542 33.1238 73.7142 33.6085 73.7142C33.8105 73.7142 33.9047 73.7409 33.9047 73.8353C33.9047 73.9279 33.8239 73.9555 33.6893 73.9555C33.5412 73.9555 33.4604 73.9688 33.2989 73.9955C32.9353 74.0623 32.8276 74.2894 32.7998 74.756C32.7729 75.1834 32.7729 75.5574 32.7729 77.5886V79.4586C32.7729 81.3954 33.1642 82.2102 33.8239 82.7435C34.4298 83.2386 35.0482 83.2912 35.506 83.2912C36.0984 83.2912 36.8263 83.1042 37.3639 82.5699C38.1044 81.8353 38.1448 80.6331 38.1448 79.2573V77.5877C38.1448 75.5574 38.1448 75.1834 38.1179 74.7551C38.091 74.301 37.9842 74.0873 37.539 73.9947C37.4313 73.9679 37.2024 73.9546 37.0543 73.9546C36.9062 73.9546 36.8254 73.9279 36.8254 73.8344C36.8254 73.7409 36.9187 73.7133 37.1072 73.7133C37.7948 73.7133 38.6421 73.7533 38.6564 73.7533C38.818 73.7533 39.6653 73.7133 40.1913 73.7133C40.3798 73.7133 40.4731 73.74 40.4731 73.8344C40.4731 73.927 40.3923 73.9546 40.2308 73.9546C40.0827 73.9546 40.001 73.9679 39.8394 73.9947C39.4759 74.0614 39.3691 74.2885 39.3413 74.7551C39.3144 75.1825 39.3144 75.5565 39.3144 77.5877V79.016C39.3144 80.4987 39.1663 82.0748 38.0353 83.0365C37.0794 83.8513 36.1109 83.9982 35.2349 83.9982C34.5213 83.9982 33.2297 83.9581 32.246 83.0766C31.5594 82.463 31.0478 81.4737 31.0478 79.537V77.5886H31.0505Z" fill="#CAD0CD"/>
<path d="M44.111 79.9386C44.111 81.6483 44.111 82.5699 44.3928 82.8103C44.6226 83.0116 44.9726 83.1042 46.0219 83.1042C46.7354 83.1042 47.2605 83.0908 47.5971 82.7302C47.7587 82.5565 47.9202 82.1825 47.9472 81.9288C47.9615 81.8085 47.9876 81.7284 48.0953 81.7284C48.1895 81.7284 48.203 81.7952 48.203 81.9555C48.203 82.1024 48.1096 83.1042 48.001 83.4915C47.9202 83.7854 47.8529 83.8522 47.1528 83.8522C46.1834 83.8522 45.4842 83.8255 44.8775 83.8121C44.2716 83.7854 43.7869 83.772 43.2358 83.772C43.0877 83.772 42.7915 83.772 42.4684 83.7854C42.1587 83.7854 41.8087 83.8121 41.5394 83.8121C41.3653 83.8121 41.2702 83.772 41.2702 83.6785C41.2702 83.6126 41.324 83.5726 41.4856 83.5726C41.6875 83.5726 41.8482 83.5459 41.9703 83.5183C42.2395 83.4648 42.3068 83.171 42.3607 82.7836C42.428 82.2226 42.428 81.1683 42.428 79.9395V77.5886C42.428 75.5583 42.428 75.1843 42.4011 74.756C42.3742 74.3019 42.2674 74.0882 41.8222 73.9955C41.7145 73.9688 41.5529 73.9555 41.3779 73.9555C41.2298 73.9555 41.149 73.9288 41.149 73.8353C41.149 73.7418 41.2423 73.7142 41.4452 73.7142C42.078 73.7142 42.9262 73.7542 43.2897 73.7542C43.6128 73.7542 44.5956 73.7142 45.1207 73.7142C45.3092 73.7142 45.4026 73.7409 45.4026 73.8353C45.4026 73.9279 45.3218 73.9555 45.1602 73.9555C45.0121 73.9555 44.7967 73.9688 44.6351 73.9955C44.2716 74.0623 44.1639 74.2894 44.137 74.756C44.1101 75.1834 44.1101 75.5574 44.1101 77.5886L44.111 79.9386Z" fill="#CAD0CD"/>
<path d="M49.9003 77.5886C49.9003 75.5583 49.9003 75.1843 49.8733 74.756C49.8473 74.3019 49.7118 74.0748 49.4156 74.008C49.2675 73.9679 49.0925 73.9546 48.9309 73.9546C48.7963 73.9546 48.7155 73.9279 48.7155 73.821C48.7155 73.7409 48.8232 73.7142 49.0386 73.7142C49.5502 73.7142 50.3984 73.7542 50.7889 73.7542C51.1254 73.7542 51.9198 73.7142 52.4305 73.7142C52.6055 73.7142 52.7132 73.7409 52.7132 73.821C52.7132 73.9279 52.6325 73.9546 52.4978 73.9546C52.3641 73.9546 52.2555 73.9679 52.0948 73.9947C51.7313 74.0614 51.6236 74.2885 51.5958 74.7551C51.5697 75.1825 51.5697 75.5565 51.5697 77.5877V79.9386C51.5697 81.2342 51.5697 82.2894 51.6236 82.8638C51.664 83.2235 51.7582 83.4648 52.1621 83.5174C52.3506 83.5441 52.6468 83.5717 52.8497 83.5717C52.9978 83.5717 53.0642 83.6118 53.0642 83.6777C53.0642 83.7711 52.9574 83.8112 52.8093 83.8112C51.9207 83.8112 51.0716 83.7711 50.7081 83.7711C50.3984 83.7711 49.5511 83.8112 49.0117 83.8112C48.8375 83.8112 48.7424 83.7711 48.7424 83.6777C48.7424 83.6118 48.7963 83.5717 48.9578 83.5717C49.1598 83.5717 49.3204 83.545 49.4425 83.5174C49.7118 83.4639 49.7926 83.2378 49.833 82.8495C49.9003 82.2885 49.9003 81.2342 49.9003 79.9377V77.5886Z" fill="#CAD0CD"/>
<path d="M56.0666 81.9955C56.0935 83.0374 56.2685 83.3856 56.5378 83.4782C56.7667 83.5583 57.0225 83.5717 57.237 83.5717C57.3851 83.5717 57.4659 83.5975 57.4659 83.6777C57.4659 83.7845 57.3447 83.8112 57.1562 83.8112C56.2811 83.8112 55.7425 83.7711 55.4876 83.7711C55.3656 83.7711 54.7328 83.8112 54.0336 83.8112C53.8585 83.8112 53.7374 83.7979 53.7374 83.6777C53.7374 83.5975 53.8182 83.5717 53.9528 83.5717C54.1269 83.5717 54.3702 83.5574 54.5586 83.5049C54.9087 83.398 54.9626 83.0107 54.976 81.8486L55.0972 73.9421C55.0972 73.6741 55.1376 73.4871 55.2722 73.4871C55.4203 73.4871 55.5415 73.6607 55.7704 73.9012C55.9319 74.0748 57.9784 76.2529 59.9441 78.1888C60.8587 79.0971 62.6771 81.0205 62.906 81.2342H62.9724L62.8387 75.2369C62.8243 74.4221 62.7041 74.1692 62.3809 74.0347C62.1781 73.9546 61.8559 73.9546 61.6674 73.9546C61.5049 73.9546 61.452 73.9145 61.452 73.8344C61.452 73.7275 61.6001 73.7133 61.802 73.7133C62.5021 73.7133 63.1484 73.7533 63.4311 73.7533C63.5792 73.7533 64.0899 73.7133 64.7505 73.7133C64.9256 73.7133 65.0602 73.7275 65.0602 73.8344C65.0602 73.9145 64.9794 73.9546 64.8178 73.9546C64.6832 73.9546 64.5755 73.9546 64.4139 73.9947C64.037 74.1015 63.9292 74.382 63.9158 75.1291L63.7677 83.5574C63.7677 83.8513 63.7129 83.9715 63.5927 83.9715C63.4446 83.9715 63.283 83.8246 63.1349 83.6777C62.2867 82.8771 60.5634 81.1273 59.1632 79.7516C57.6956 78.309 56.2012 76.6394 55.9589 76.3856H55.9185L56.0666 81.9955Z" fill="#CAD0CD"/>
<path d="M67.9279 80.3259C67.8615 80.3259 67.8346 80.3526 67.8067 80.4328L67.0797 82.3437C66.9451 82.6777 66.8769 82.9973 66.8769 83.1576C66.8769 83.3989 66.9989 83.5726 67.4163 83.5726H67.6183C67.7798 83.5726 67.8202 83.5984 67.8202 83.6785C67.8202 83.7854 67.7394 83.8121 67.5913 83.8121C67.1614 83.8121 66.5816 83.772 66.1642 83.772C66.0161 83.772 65.2765 83.8121 64.5755 83.8121C64.4005 83.8121 64.3197 83.7854 64.3197 83.6785C64.3197 83.5984 64.3735 83.5726 64.4813 83.5726C64.6033 83.5726 64.7918 83.5583 64.8986 83.5459C65.5188 83.4657 65.7747 83.0116 66.043 82.3437L69.4224 73.9555C69.5848 73.5672 69.6656 73.4203 69.7993 73.4203C69.9214 73.4203 70.0022 73.5414 70.1359 73.8477C70.4591 74.5824 72.6132 80.0312 73.4749 82.0623C73.9865 83.2645 74.3769 83.4515 74.6597 83.5183C74.8616 83.5583 75.0636 83.5726 75.2251 83.5726C75.3328 83.5726 75.4002 83.5859 75.4002 83.6785C75.4002 83.7854 75.279 83.8121 74.7808 83.8121C74.2962 83.8121 73.3133 83.8121 72.2362 83.7854C71.9939 83.772 71.8332 83.772 71.8332 83.6785C71.8332 83.5984 71.8871 83.5726 72.0217 83.5583C72.1151 83.5325 72.2102 83.4114 72.1429 83.2511L71.0658 80.4194C71.0389 80.3526 70.9985 80.3259 70.9312 80.3259H67.9279ZM70.6745 79.6581C70.7409 79.6581 70.7553 79.618 70.7409 79.5779L69.5292 76.2787C69.5157 76.2253 69.5023 76.1585 69.4619 76.1585C69.4215 76.1585 69.3945 76.2253 69.3811 76.2787L68.1424 79.5646C68.129 79.618 68.1424 79.6572 68.1972 79.6572L70.6745 79.6581Z" fill="#CAD0CD"/>
<path d="M76.1407 77.5886C76.1407 75.5583 76.1407 75.1843 76.1137 74.756C76.0868 74.3019 75.98 74.0882 75.5348 73.9955C75.4271 73.9688 75.1982 73.9555 75.0097 73.9555C74.8616 73.9555 74.7808 73.9288 74.7808 73.8353C74.7808 73.7418 74.8742 73.7142 75.077 73.7142C75.7906 73.7142 76.6379 73.7542 76.9215 73.7542C77.3793 73.7542 78.4016 73.7142 78.819 73.7142C79.6672 73.7142 80.5702 73.7952 81.2972 74.2894C81.6742 74.5432 82.2127 75.2244 82.2127 76.1193C82.2127 77.1077 81.7953 78.016 80.4355 79.1113C81.6347 80.6073 82.5619 81.7961 83.358 82.6233C84.112 83.398 84.6622 83.4915 84.8659 83.5325C85.0131 83.5583 85.1343 83.5726 85.2429 83.5726C85.3497 83.5726 85.4044 83.6126 85.4044 83.6785C85.4044 83.7854 85.3102 83.8121 85.1486 83.8121H83.8687C83.1148 83.8121 82.7782 83.7453 82.429 83.5583C81.8492 83.2511 81.3385 82.6233 80.5845 81.5948C80.0442 80.8611 79.4258 79.9519 79.2507 79.7524C79.1843 79.6723 79.1026 79.659 79.0084 79.659L77.8371 79.6331C77.7697 79.6331 77.7293 79.6589 77.7293 79.7391V79.9261C77.7293 81.1692 77.7294 82.2235 77.7967 82.7845C77.8371 83.1728 77.9178 83.4666 78.3217 83.5191C78.5246 83.5459 78.8199 83.5735 78.9815 83.5735C79.0892 83.5735 79.143 83.6135 79.143 83.6794C79.143 83.7729 79.0497 83.813 78.8737 83.813C78.0929 83.813 77.0966 83.7729 76.8946 83.7729C76.6388 83.7729 75.7915 83.813 75.2521 83.813C75.0779 83.813 74.9828 83.7729 74.9828 83.6794C74.9828 83.6135 75.0358 83.5735 75.1982 83.5735C75.4002 83.5735 75.5608 83.5467 75.6829 83.5191C75.9522 83.4657 76.0195 83.1719 76.0733 82.7845C76.1407 82.2235 76.1407 81.1692 76.1407 79.9403V77.5886ZM77.7293 78.6429C77.7293 78.7898 77.7563 78.8433 77.8514 78.8833C78.1333 78.9768 78.5381 79.0169 78.8746 79.0169C79.4123 79.0169 79.5873 78.9635 79.8297 78.7898C80.2345 78.496 80.6258 77.8816 80.6258 76.7863C80.6258 74.8896 79.3602 74.3419 78.5659 74.3419C78.2293 74.3419 77.9861 74.3562 77.8523 74.3963C77.7572 74.4221 77.7302 74.4764 77.7302 74.5833L77.7293 78.6429Z" fill="#CAD0CD"/>
<path d="M86.8711 80.3526C86.8711 79.6313 86.7382 79.3375 86.5623 78.9501C86.4681 78.7373 84.664 75.7979 84.1918 75.1042C83.8553 74.6091 83.5187 74.2752 83.2629 74.1291C83.0878 74.0356 82.8598 73.9555 82.6983 73.9555C82.5897 73.9555 82.4945 73.9288 82.4945 73.8353C82.4945 73.7542 82.5888 73.7142 82.7503 73.7142C82.9936 73.7142 84.0033 73.7542 84.4476 73.7542C84.7295 73.7542 85.2824 73.7142 85.8882 73.7142C86.0229 73.7142 86.0902 73.7542 86.0902 73.8353C86.0902 73.9154 85.9959 73.9279 85.794 73.9822C85.6728 74.008 85.6046 74.1149 85.6046 74.2226C85.6046 74.3304 85.6728 74.4898 85.768 74.6768C85.9556 75.0775 87.8405 78.2965 88.0559 78.6705C88.1905 78.35 89.8878 75.4114 90.0754 74.9973C90.21 74.7035 90.2648 74.4764 90.2648 74.3028C90.2648 74.1701 90.21 74.0232 89.9811 73.9688C89.86 73.943 89.7388 73.9154 89.7388 73.8362C89.7388 73.7427 89.807 73.715 89.9686 73.715C90.412 73.715 90.8437 73.7551 91.2342 73.7551C91.5304 73.7551 92.4171 73.715 92.6739 73.715C92.8228 73.715 92.9171 73.7418 92.9171 73.8219C92.9171 73.9154 92.8085 73.9555 92.6613 73.9555C92.5266 73.9555 92.2699 74.0089 92.0689 74.1158C91.7853 74.2493 91.6381 74.4096 91.341 74.7703C90.8976 75.3045 89.0109 78.4435 88.7694 79.0178C88.5675 79.4987 88.5675 79.9127 88.5675 80.3535V81.4479C88.5675 81.6616 88.5675 82.2226 88.6079 82.7836C88.6339 83.1719 88.7551 83.4657 89.1599 83.5183C89.3475 83.545 89.6437 83.5726 89.833 83.5726C89.9802 83.5726 90.0485 83.6126 90.0485 83.6785C90.0485 83.772 89.9399 83.8121 89.7648 83.8121C88.9184 83.8121 88.0693 83.772 87.7049 83.772C87.3683 83.772 86.5219 83.8121 86.0238 83.8121C85.8344 83.8121 85.7276 83.7854 85.7276 83.6785C85.7276 83.6126 85.794 83.5726 85.9412 83.5726C86.1306 83.5726 86.2921 83.5459 86.4124 83.5183C86.6826 83.4648 86.8038 83.171 86.8298 82.7836C86.8702 82.2226 86.8702 81.6616 86.8702 81.4479V80.3526H86.8711Z" fill="#CAD0CD"/>
<path d="M97.0773 77.5886C97.0773 75.5583 97.0773 75.1843 97.0495 74.756C97.0235 74.3019 96.9167 74.0882 96.4706 73.9955C96.3638 73.9688 96.134 73.9555 95.9464 73.9555C95.7974 73.9555 95.7166 73.9288 95.7166 73.8353C95.7166 73.7418 95.8109 73.7142 96.0128 73.7142C96.7264 73.7142 97.5746 73.7542 97.9515 73.7542C98.5035 73.7542 99.2835 73.7142 99.9029 73.7142C101.586 73.7142 102.193 74.2752 102.408 74.4755C102.704 74.7551 103.081 75.3571 103.081 76.065C103.081 77.9617 101.68 79.2974 99.77 79.2974C99.7018 79.2974 99.5546 79.2974 99.4864 79.2832C99.42 79.2698 99.3248 79.2573 99.3248 79.163C99.3248 79.0561 99.4191 79.016 99.7018 79.016C100.456 79.016 101.506 78.1745 101.506 76.8121C101.506 76.3713 101.466 75.4764 100.712 74.8085C100.228 74.3678 99.6758 74.2876 99.3652 74.2876C99.1633 74.2876 98.9622 74.301 98.841 74.341C98.7728 74.3678 98.7324 74.4479 98.7324 74.5948V79.9377C98.7324 81.1665 98.7324 82.2208 98.8006 82.7961C98.841 83.1701 98.9218 83.4639 99.3248 83.5174C99.5142 83.5441 99.8104 83.5717 100.012 83.5717C100.16 83.5717 100.228 83.6118 100.228 83.6777C100.228 83.7711 100.119 83.8112 99.972 83.8112C99.0834 83.8112 98.2343 83.7711 97.8842 83.7711C97.5755 83.7711 96.7273 83.8112 96.1887 83.8112C96.0137 83.8112 95.9186 83.7711 95.9186 83.6777C95.9186 83.6118 95.9733 83.5717 96.134 83.5717C96.3359 83.5717 96.4966 83.545 96.6196 83.5174C96.8879 83.4639 96.9561 83.1701 97.0091 82.7827C97.0773 82.2217 97.0773 81.1674 97.0773 79.9386V77.5886Z" fill="#CAD0CD"/>
<path d="M105.087 80.3259C105.021 80.3259 104.994 80.3526 104.966 80.4328L104.24 82.3437C104.105 82.6777 104.036 82.9973 104.036 83.1576C104.036 83.3989 104.159 83.5726 104.576 83.5726H104.778C104.94 83.5726 104.98 83.5984 104.98 83.6785C104.98 83.7854 104.9 83.8121 104.751 83.8121C104.321 83.8121 103.741 83.772 103.323 83.772C103.176 83.772 102.437 83.8121 101.735 83.8121C101.56 83.8121 101.479 83.7854 101.479 83.6785C101.479 83.5984 101.534 83.5726 101.641 83.5726C101.764 83.5726 101.951 83.5583 102.058 83.5459C102.678 83.4657 102.935 83.0116 103.202 82.3437L106.583 73.9555C106.745 73.5672 106.826 73.4203 106.96 73.4203C107.082 73.4203 107.162 73.5414 107.297 73.8477C107.619 74.5824 109.774 80.0312 110.635 82.0623C111.147 83.2645 111.538 83.4515 111.82 83.5183C112.022 83.5583 112.225 83.5726 112.386 83.5726C112.493 83.5726 112.561 83.5859 112.561 83.6785C112.561 83.7854 112.44 83.8121 111.941 83.8121C111.457 83.8121 110.474 83.8121 109.397 83.7854C109.155 83.772 108.994 83.772 108.994 83.6785C108.994 83.5984 109.047 83.5726 109.182 83.5583C109.276 83.5325 109.371 83.4114 109.303 83.2511L108.227 80.4194C108.199 80.3526 108.159 80.3259 108.092 80.3259H105.087ZM107.835 79.6581C107.901 79.6581 107.915 79.618 107.901 79.5779L106.689 76.2787C106.677 76.2253 106.663 76.1585 106.623 76.1585C106.583 76.1585 106.555 76.2253 106.542 76.2787L105.302 79.5646C105.289 79.618 105.302 79.6572 105.356 79.6572L107.835 79.6581Z" fill="#CAD0CD"/>
<path d="M113.301 77.5886C113.301 75.5583 113.301 75.1843 113.275 74.756C113.247 74.3019 113.14 74.0882 112.696 73.9955C112.587 73.9688 112.359 73.9555 112.17 73.9555C112.023 73.9555 111.942 73.9288 111.942 73.8353C111.942 73.7418 112.034 73.7142 112.238 73.7142C112.952 73.7142 113.798 73.7542 114.083 73.7542C114.54 73.7542 115.562 73.7142 115.979 73.7142C116.827 73.7142 117.73 73.7952 118.458 74.2894C118.835 74.5432 119.374 75.2244 119.374 76.1193C119.374 77.1077 118.956 78.016 117.597 79.1113C118.796 80.6073 119.723 81.7961 120.519 82.6233C121.273 83.398 121.823 83.4915 122.027 83.5325C122.174 83.5583 122.295 83.5726 122.404 83.5726C122.511 83.5726 122.566 83.6126 122.566 83.6785C122.566 83.7854 122.471 83.8121 122.31 83.8121H121.03C120.276 83.8121 119.939 83.7453 119.59 83.5583C119.01 83.2511 118.5 82.6233 117.746 81.5948C117.205 80.8611 116.587 79.9519 116.412 79.7524C116.345 79.6723 116.265 79.659 116.169 79.659L114.998 79.6331C114.93 79.6331 114.89 79.6589 114.89 79.7391V79.9261C114.89 81.1692 114.89 82.2235 114.958 82.7845C114.998 83.1728 115.079 83.4666 115.482 83.5191C115.686 83.5459 115.98 83.5735 116.143 83.5735C116.249 83.5735 116.304 83.6135 116.304 83.6794C116.304 83.7729 116.21 83.813 116.034 83.813C115.254 83.813 114.257 83.7729 114.055 83.7729C113.799 83.7729 112.953 83.813 112.412 83.813C112.239 83.813 112.144 83.7729 112.144 83.6794C112.144 83.6135 112.197 83.5735 112.359 83.5735C112.561 83.5735 112.722 83.5467 112.843 83.5191C113.113 83.4657 113.18 83.1719 113.234 82.7845C113.301 82.2235 113.301 81.1692 113.301 79.9403V77.5886ZM114.89 78.6429C114.89 78.7898 114.917 78.8433 115.013 78.8833C115.294 78.9768 115.698 79.0169 116.035 79.0169C116.573 79.0169 116.748 78.9635 116.991 78.7898C117.396 78.496 117.787 77.8816 117.787 76.7863C117.787 74.8896 116.521 74.3419 115.727 74.3419C115.39 74.3419 115.147 74.3562 115.013 74.3963C114.919 74.4221 114.89 74.4764 114.89 74.5833L114.89 78.6429Z" fill="#CAD0CD"/>
<path d="M124.073 74.463L122.066 74.5165C121.287 74.5432 120.963 74.6091 120.761 74.9038C120.628 75.1042 120.559 75.2645 120.533 75.3713C120.505 75.4782 120.464 75.5316 120.384 75.5316C120.29 75.5316 120.262 75.4648 120.262 75.3188C120.262 75.1051 120.518 73.8896 120.546 73.7818C120.586 73.6091 120.627 73.528 120.708 73.528C120.814 73.528 120.95 73.6616 121.287 73.6892C121.678 73.7293 122.188 73.7551 122.633 73.7551H127.964C128.395 73.7551 128.691 73.715 128.893 73.6892C129.094 73.6492 129.203 73.6224 129.255 73.6224C129.349 73.6224 129.364 73.7026 129.364 73.902C129.364 74.1825 129.323 75.1042 129.323 75.4515C129.309 75.585 129.283 75.6652 129.202 75.6652C129.094 75.6652 129.068 75.5984 129.053 75.398L129.039 75.2511C129.013 74.9029 128.649 74.5289 127.45 74.5031L125.755 74.463V79.9386C125.755 81.1674 125.755 82.2217 125.821 82.797C125.861 83.171 125.942 83.4648 126.345 83.5183C126.535 83.545 126.831 83.5726 127.033 83.5726C127.182 83.5726 127.248 83.6126 127.248 83.6785C127.248 83.772 127.141 83.8121 126.992 83.8121C126.104 83.8121 125.255 83.772 124.879 83.772C124.57 83.772 123.722 83.8121 123.183 83.8121C123.008 83.8121 122.913 83.772 122.913 83.6785C122.913 83.6126 122.968 83.5726 123.128 83.5726C123.33 83.5726 123.491 83.5459 123.614 83.5183C123.882 83.4648 123.963 83.171 124.003 82.7836C124.072 82.2226 124.072 81.1683 124.072 79.9395V74.463H124.073Z" fill="#CAD0CD"/>
<path d="M131.922 81.9955C131.948 83.0374 132.124 83.3856 132.393 83.4782C132.621 83.5583 132.877 83.5717 133.092 83.5717C133.239 83.5717 133.32 83.5975 133.32 83.6777C133.32 83.7845 133.199 83.8112 133.011 83.8112C132.136 83.8112 131.597 83.7711 131.343 83.7711C131.22 83.7711 130.587 83.8112 129.888 83.8112C129.713 83.8112 129.592 83.7979 129.592 83.6777C129.592 83.5975 129.672 83.5717 129.807 83.5717C129.982 83.5717 130.224 83.5574 130.414 83.5049C130.763 83.398 130.817 83.0107 130.831 81.8486L130.952 73.9421C130.952 73.6741 130.993 73.4871 131.127 73.4871C131.275 73.4871 131.396 73.6607 131.626 73.9012C131.787 74.0748 133.833 76.2529 135.799 78.1888C136.714 79.0971 138.532 81.0205 138.76 81.2342H138.827L138.694 75.2369C138.68 74.4221 138.559 74.1692 138.236 74.0347C138.032 73.9546 137.71 73.9546 137.523 73.9546C137.359 73.9546 137.307 73.9145 137.307 73.8344C137.307 73.7275 137.454 73.7133 137.656 73.7133C138.357 73.7133 139.003 73.7533 139.286 73.7533C139.434 73.7533 139.945 73.7133 140.605 73.7133C140.78 73.7133 140.915 73.7275 140.915 73.8344C140.915 73.9145 140.835 73.9546 140.673 73.9546C140.538 73.9546 140.43 73.9546 140.268 73.9947C139.891 74.1015 139.784 74.382 139.77 75.1291L139.623 83.5574C139.623 83.8513 139.568 83.9715 139.448 83.9715C139.299 83.9715 139.137 83.8246 138.99 83.6777C138.142 82.8771 136.419 81.1273 135.018 79.7516C133.55 78.309 132.056 76.6394 131.813 76.3856H131.773L131.922 81.9955Z" fill="#CAD0CD"/>
<path d="M143.245 77.5886C143.245 75.5583 143.245 75.1843 143.217 74.756C143.191 74.3019 143.084 74.0882 142.638 73.9955C142.531 73.9688 142.301 73.9555 142.114 73.9555C141.965 73.9555 141.884 73.9288 141.884 73.8353C141.884 73.7418 141.978 73.7142 142.18 73.7142C142.543 73.7142 142.934 73.7284 143.271 73.7284C143.622 73.7418 143.929 73.7542 144.119 73.7542C144.551 73.7542 147.229 73.7542 147.485 73.7409C147.741 73.7142 147.956 73.6874 148.064 73.6607C148.13 73.6474 148.213 73.6073 148.279 73.6073C148.345 73.6073 148.36 73.6607 148.36 73.7275C148.36 73.8201 148.293 73.9813 148.253 74.5957C148.239 74.7293 148.213 75.3179 148.185 75.4773C148.17 75.5441 148.144 75.6242 148.05 75.6242C147.957 75.6242 147.929 75.5574 147.929 75.4372C147.929 75.3437 147.916 75.1167 147.848 74.9564C147.754 74.715 147.62 74.5557 146.947 74.4755C146.717 74.4488 145.305 74.4212 145.034 74.4212C144.968 74.4212 144.94 74.4622 144.94 74.5548V77.9341C144.94 78.0267 144.954 78.081 145.034 78.081C145.331 78.081 146.879 78.081 147.189 78.0543C147.511 78.0276 147.713 77.9875 147.834 77.854C147.928 77.7471 147.983 77.6803 148.049 77.6803C148.104 77.6803 148.144 77.707 148.144 77.7872C148.144 77.8673 148.089 78.081 148.037 78.7622C148.022 79.0294 147.982 79.5637 147.982 79.6572C147.982 79.764 147.982 79.9109 147.861 79.9109C147.767 79.9109 147.74 79.8575 147.74 79.7907C147.725 79.6572 147.725 79.4835 147.685 79.3099C147.618 79.0427 147.429 78.8424 146.931 78.789C146.675 78.7622 145.342 78.7489 145.018 78.7489C144.952 78.7489 144.937 78.8023 144.937 78.8816V79.9377C144.937 80.3918 144.925 81.6207 144.937 82.008C144.965 82.9288 145.181 83.13 146.554 83.13C146.905 83.13 147.469 83.13 147.82 82.9688C148.169 82.8085 148.331 82.5289 148.424 81.9813C148.452 81.8344 148.479 81.7801 148.573 81.7801C148.68 81.7801 148.68 81.8869 148.68 82.0214C148.68 82.3286 148.573 83.2369 148.505 83.504C148.412 83.8513 148.292 83.8513 147.779 83.8513C146.769 83.8513 146.028 83.8246 145.449 83.8112C144.87 83.7845 144.454 83.7711 144.048 83.7711C143.901 83.7711 143.605 83.7711 143.281 83.7845C142.971 83.7845 142.621 83.8112 142.352 83.8112C142.177 83.8112 142.082 83.7711 142.082 83.6777C142.082 83.6118 142.137 83.5717 142.298 83.5717C142.5 83.5717 142.66 83.545 142.783 83.5174C143.052 83.4639 143.12 83.1701 143.173 82.7827C143.241 82.2217 143.241 81.1674 143.241 79.9386V77.5886H143.245Z" fill="#CAD0CD"/>
<path d="M151.079 77.5886C151.079 75.5583 151.079 75.1843 151.053 74.756C151.026 74.3019 150.919 74.0882 150.475 73.9955C150.367 73.9688 150.139 73.9555 149.949 73.9555C149.802 73.9555 149.721 73.9288 149.721 73.8353C149.721 73.7418 149.815 73.7142 150.018 73.7142C150.731 73.7142 151.578 73.7542 151.862 73.7542C152.32 73.7542 153.342 73.7142 153.759 73.7142C154.607 73.7142 155.51 73.7952 156.238 74.2894C156.615 74.5432 157.153 75.2244 157.153 76.1193C157.153 77.1077 156.736 78.016 155.376 79.1113C156.575 80.6073 157.502 81.7961 158.299 82.6233C159.053 83.398 159.603 83.4915 159.807 83.5325C159.954 83.5583 160.075 83.5726 160.184 83.5726C160.29 83.5726 160.345 83.6126 160.345 83.6785C160.345 83.7854 160.251 83.8121 160.089 83.8121H158.809C158.055 83.8121 157.719 83.7453 157.37 83.5583C156.79 83.2511 156.279 82.6233 155.525 81.5948C154.985 80.8611 154.366 79.9519 154.191 79.7524C154.125 79.6723 154.044 79.659 153.949 79.659L152.778 79.6331C152.709 79.6331 152.669 79.6589 152.669 79.7391V79.9261C152.669 81.1692 152.669 82.2235 152.737 82.7845C152.778 83.1728 152.858 83.4666 153.261 83.5191C153.465 83.5459 153.76 83.5735 153.922 83.5735C154.029 83.5735 154.084 83.6135 154.084 83.6794C154.084 83.7729 153.989 83.813 153.813 83.813C153.033 83.813 152.036 83.7729 151.834 83.7729C151.579 83.7729 150.731 83.813 150.192 83.813C150.019 83.813 149.923 83.7729 149.923 83.6794C149.923 83.6135 149.976 83.5735 150.139 83.5735C150.341 83.5735 150.501 83.5467 150.623 83.5191C150.893 83.4657 150.959 83.1719 151.014 82.7845C151.08 82.2235 151.08 81.1692 151.08 79.9403V77.5886H151.079ZM152.667 78.6429C152.667 78.7898 152.695 78.8433 152.79 78.8833C153.072 78.9768 153.476 79.0169 153.813 79.0169C154.351 79.0169 154.526 78.9635 154.768 78.7898C155.172 78.496 155.564 77.8816 155.564 76.7863C155.564 74.8896 154.298 74.3419 153.504 74.3419C153.167 74.3419 152.923 74.3562 152.79 74.3963C152.696 74.4221 152.667 74.4764 152.667 74.5833V78.6429Z" fill="#CAD0CD"/>
<path d="M39.2883 52.1594L39.3206 52.2983H39.8394L41.1553 48.2636L39.975 48.1647C38.2822 48.1647 36.7159 48.9181 35.313 50.3829C34.5088 50.2297 33.5951 50.0757 32.7998 50.0757C28.8496 50.0757 25.8697 52.2654 25.8697 55.171C25.8697 57.3206 27.3273 58.9101 29.8827 59.6313C28.0822 60.016 27.2358 60.6251 27.2358 61.5209C27.2358 62.2369 27.8084 62.7044 28.9439 62.9475C26.2341 63.5129 25.2845 64.5503 25.2845 66.1327C25.2845 68.3695 27.97 69.8833 32.5314 69.8833C37.7813 69.8833 41.0404 68.1042 41.0404 65.2386C41.0404 62.7159 38.9553 61.8994 35.8228 61.4479L33.8616 61.2057C32.3322 61.0338 31.8035 60.9555 31.8035 60.5646C31.8035 60.268 32.0396 60.2208 33.0493 60.1532C33.6328 60.114 34.3616 60.0641 35.2699 59.8931C38.0443 59.3526 39.8358 57.4898 39.8358 55.1451C39.8358 53.2965 38.8315 51.9546 36.6208 50.8183C36.9277 50.5984 37.2383 50.4123 37.5372 50.4123C38.3782 50.4123 39.0325 51.0659 39.2883 52.1594ZM32.5844 63.7471C35.3327 63.7471 36.8469 64.5779 36.8469 66.0882C36.8469 67.6732 35.2681 68.6964 32.8267 68.6964C30.6106 68.6964 29.3415 67.7551 29.3415 66.1167C29.3415 64.6777 30.6142 63.7471 32.5844 63.7471ZM32.9066 58.9492C31.2775 58.9492 30.3046 57.5378 30.3046 55.1719C30.3046 52.8344 31.2955 51.2627 32.7729 51.2627C34.3185 51.2627 35.2412 52.6153 35.2412 54.8798C35.2403 57.4283 34.3688 58.9492 32.9066 58.9492ZM11.5122 53.8326C14.2282 53.1763 15.6096 51.691 15.6096 49.4007C15.6096 46.2476 13.2005 44.7783 8.02874 44.7783L6.20129 44.8032L3.29318 44.8379L0.262987 44.8059L0.259397 44.9902V45.4719L0.409291 45.4987C1.13901 45.6313 1.62639 46.0703 1.62639 47.7809V58.016C1.62639 62.1701 1.55369 63.6287 0.130147 64.0552L0 64.0944V64.7507L0.192977 64.7409C1.30686 64.6785 2.42882 64.65 3.62258 64.65L6.76317 64.7035L8.7818 64.7409C14.2031 64.7409 16.9515 62.8112 16.9515 59.0071C16.9515 56.0926 15.1105 54.3633 11.5122 53.8326ZM5.87817 46.2386C6.12859 46.2217 6.99115 46.1603 6.99115 46.1603C9.8517 46.1603 11.0742 47.2021 11.0742 49.6411C11.0742 52.2921 9.85888 53.4221 7.01539 53.4221L6.08192 53.382C6.08192 53.382 5.9796 53.3767 5.87907 53.3722V46.2386H5.87817ZM8.31058 63.3268C5.96075 63.3268 5.87817 62.463 5.87817 58.3758C5.87817 58.3758 5.87817 55.1407 5.87817 54.8264C6.1618 54.8139 7.6751 54.7453 7.6751 54.7453C10.9602 54.7453 12.18 55.9323 12.18 59.1264C12.1809 61.9528 10.9162 63.3268 8.31058 63.3268ZM25.4092 64.0882L25.271 64.0543C23.6204 63.6492 23.4741 62.4586 23.4741 59.1558V55.4898C23.4741 53.8005 23.4741 52.2012 23.5638 50.6402L23.5782 50.4034L23.3448 50.4533C21.7534 50.7898 19.8084 51.0846 17.2198 51.3802L17.0583 51.3989V52.049L17.2279 52.0606C18.6021 52.1532 18.7511 52.6545 18.7511 54.5895V59.3713C18.7511 62.1852 18.6757 63.5601 16.947 64.057L16.815 64.0944V64.7409L17.008 64.7311C18.3885 64.659 19.7115 64.6251 21.0524 64.6251C22.5819 64.6251 23.9444 64.659 25.2172 64.7302L25.4092 64.7427V64.0882ZM20.8855 48.4853C22.45 48.4853 23.6312 47.6874 23.6312 46.6305C23.6312 45.5717 22.45 44.7747 20.8855 44.7747C19.3192 44.7747 18.1371 45.5717 18.1371 46.6305C18.138 47.7222 19.2672 48.4853 20.8855 48.4853ZM123.946 59.1327V56.7952C123.946 52.293 122.109 50.1042 118.329 50.1042C116.203 50.1042 114.68 51.0098 113.69 52.8531C113.69 51.9849 113.69 50.3918 113.69 50.3918L113.457 50.4586C112.09 50.8504 110.378 51.1683 108.373 51.4078L108.212 51.4265V52.0481L108.38 52.0606C109.581 52.1532 109.711 52.6545 109.711 54.5895V59.1327C109.711 62.1282 109.642 63.5922 108.098 64.0864L107.971 64.1273V64.6812L108.639 64.6696L111.766 64.6242L115.458 64.6777L115.644 64.6821V64.1211L115.512 64.0846C113.971 63.6465 113.903 62.1772 113.903 58.8923V57.0329C113.903 53.9644 115.156 51.9822 117.096 51.9822C118.938 51.9822 119.724 53.4933 119.724 57.0329V59.5565C119.724 62.4212 119.582 63.6322 118.139 64.0864L118.01 64.1256V64.6812L118.676 64.6696L121.805 64.6242L125.497 64.6777L125.685 64.6821V64.1211L125.552 64.0846C124.085 63.6616 123.946 62.39 123.946 59.1327ZM108.341 59.2333L107.309 58.3232L107.231 58.6073C106.404 61.7168 104.744 63.3606 102.43 63.3606C99.6614 63.3606 98.0063 61.0454 98.0063 57.1665C98.0063 57.1665 98.0431 56.2796 98.0539 56.073C98.3887 56.073 108.129 56.073 108.129 56.073L108.099 55.8673C107.582 52.1888 104.96 50.0793 100.903 50.0793C96.3655 50.0793 93.1971 53.1247 93.1971 57.4862C93.1971 61.9092 96.4221 64.9982 101.037 64.9982C104.747 64.9982 107.192 63.0971 108.308 59.3437L108.341 59.2333ZM100.797 51.2654C102.154 51.2654 103.05 52.602 103.169 54.7533H98.1239C98.4757 52.5396 99.4406 51.2654 100.797 51.2654ZM90.8958 58.6073C90.0673 61.7168 88.4077 63.3606 86.092 63.3606C83.3239 63.3606 81.6706 61.0454 81.6706 57.1665C81.6706 57.1665 81.7083 56.2271 81.7146 56.073C82.0511 56.073 91.7906 56.073 91.7906 56.073L91.7619 55.8673C91.2431 52.1888 88.6213 50.0793 84.567 50.0793C80.0289 50.0793 76.8605 53.1247 76.8605 57.4862C76.8605 61.9092 80.0846 64.9982 84.7008 64.9982C88.4095 64.9982 90.8536 63.0971 91.9702 59.3437L92.0034 59.2333L90.973 58.3232L90.8958 58.6073ZM84.4602 51.2654C85.8182 51.2654 86.714 52.602 86.8325 54.7533H81.7873C82.1391 52.5396 83.1031 51.2654 84.4602 51.2654ZM66.5367 55.2965L66.6695 55.2591V54.553L66.4783 54.5619C64.7514 54.6385 63.1681 54.6785 61.7751 54.6785C60.1747 54.6785 58.6623 54.6402 57.1526 54.5619L56.9614 54.5521V55.2885L57.1266 55.3036C59.8193 55.5512 60.0939 56.2609 60.0939 59.1843C60.0939 62.8299 59.3283 63.9412 56.8223 63.9412C53.3658 63.9412 51.7564 61.1024 51.7564 55.0071C51.7564 49.0329 53.6584 46.1309 57.5718 46.1309C60.5697 46.1309 62.3055 48.0383 62.8791 51.9635L62.8979 52.0864L63.5559 52.2404L65.2325 47.2199L65.1167 47.1425C62.8073 45.6118 60.0769 44.8032 57.2235 44.8032C50.6928 44.8032 46.3055 48.8798 46.3055 54.9484C46.3055 61.1995 50.5169 65.2395 57.0359 65.2395C60.2977 65.2395 62.8773 64.3544 64.922 62.5352L64.9857 62.4773L64.9022 60.5601V57.3455C64.9031 56.0623 65.2235 55.6616 66.5367 55.2965ZM76.5087 50.0793C74.6839 50.0793 73.2119 51.0997 72.1133 53.0953C72.1133 52.2084 72.1133 50.3651 72.1133 50.3651L71.8799 50.4319C70.696 50.7711 68.9036 51.0908 66.5537 51.382L66.3922 51.4025V52.049L66.5609 52.0614C67.761 52.1541 67.892 52.6554 67.892 54.5904V59.3713C67.892 62.3998 67.7547 63.5895 66.3024 64.0614L66.1768 64.1015V64.683L66.9038 64.6696L69.9483 64.626L73.6382 64.6794L73.8249 64.6839V64.0944L73.6921 64.0579C72.2416 63.6563 72.1115 62.4639 72.1115 59.1585V57.8842C72.1115 56.2333 72.466 54.2671 74.1507 54.2671C74.5349 54.2671 74.8365 54.4167 75.077 54.7266L75.1327 54.7988H75.7008L77.2913 50.1184L76.5087 50.0793ZM179.205 68.5735C179.282 68.5111 179.319 68.4141 179.319 68.2787C179.319 68.1362 179.277 68.0303 179.19 67.9599C179.106 67.8887 178.973 67.854 178.795 67.854H178.216V69.3393H178.449V68.7017H178.694L179.102 69.3393H179.353L178.925 68.6848C179.036 68.675 179.131 68.6376 179.205 68.5735ZM178.692 68.5138H178.449V68.0427H178.758C178.796 68.0427 178.835 68.0436 178.875 68.0508C178.918 68.0552 178.951 68.0668 178.982 68.0828C179.012 68.098 179.039 68.1211 179.058 68.1514C179.076 68.1808 179.085 68.2208 179.085 68.2698C179.085 68.3295 179.076 68.374 179.054 68.4061C179.033 68.4408 179.003 68.463 178.966 68.4791C178.929 68.4951 178.887 68.5049 178.841 68.5085C178.795 68.5111 178.745 68.5138 178.692 68.5138ZM179.897 68.0917C179.83 67.9386 179.737 67.8041 179.619 67.6919C179.502 67.577 179.367 67.4898 179.211 67.4248C179.057 67.3606 178.892 67.3286 178.715 67.3286C178.54 67.3286 178.375 67.3606 178.218 67.4248C178.06 67.4898 177.924 67.577 177.806 67.6919C177.689 67.8041 177.596 67.9386 177.527 68.0917C177.457 68.2467 177.424 68.4132 177.424 68.5931C177.424 68.7765 177.457 68.9457 177.527 69.1006C177.595 69.2547 177.689 69.3918 177.806 69.504C177.924 69.6189 178.06 69.7088 178.218 69.772C178.375 69.8353 178.539 69.8664 178.715 69.8664C178.891 69.8664 179.057 69.8353 179.211 69.772C179.367 69.7088 179.502 69.6189 179.619 69.504C179.737 69.3918 179.829 69.2547 179.897 69.1006C179.965 68.9448 180 68.7765 180 68.5931C180 68.4132 179.965 68.2467 179.897 68.0917ZM179.687 69.0267C179.634 69.1594 179.558 69.2743 179.464 69.3713C179.37 69.4675 179.259 69.545 179.131 69.6002C179.003 69.6563 178.865 69.6839 178.716 69.6839C178.567 69.6839 178.427 69.6563 178.296 69.6002C178.166 69.545 178.056 69.4684 177.962 69.3713C177.867 69.2743 177.792 69.1603 177.739 69.0267C177.684 68.8949 177.658 68.7489 177.658 68.5931C177.658 68.4417 177.684 68.3001 177.739 68.1674C177.792 68.0365 177.867 67.9225 177.962 67.8264C178.056 67.7302 178.167 67.6554 178.296 67.5993C178.427 67.5441 178.567 67.5165 178.716 67.5165C178.865 67.5165 179.003 67.5441 179.131 67.5993C179.26 67.6554 179.37 67.7302 179.464 67.8264C179.558 67.9225 179.634 68.0374 179.687 68.1674C179.741 68.3001 179.768 68.4417 179.768 68.5931C179.768 68.7489 179.741 68.8949 179.687 69.0267ZM172.118 61.447L170.16 61.2048C168.628 61.0329 168.098 60.9546 168.098 60.5637C168.098 60.2671 168.333 60.2199 169.343 60.1523C169.928 60.114 170.656 60.0632 171.565 59.8923C174.34 59.3535 176.131 57.4889 176.131 55.1443C176.131 53.2956 175.127 51.9537 172.915 50.8192C173.222 50.5984 173.533 50.4114 173.833 50.4114C174.673 50.4114 175.326 51.065 175.582 52.1585L175.615 52.2974H176.134L177.449 48.2645L176.27 48.1638C174.576 48.1638 173.011 48.9172 171.607 50.3838C170.803 50.2289 169.891 50.0757 169.093 50.0757C165.143 50.0757 162.164 52.2663 162.164 55.1719C162.164 57.3215 163.623 58.9101 166.177 59.6322C164.375 60.0178 163.529 60.626 163.529 61.52C163.529 62.2369 164.102 62.7035 165.238 62.9466C162.527 63.5138 161.462 64.5459 161.462 66.1273C161.462 68.3633 164.265 69.8816 168.826 69.8816C174.073 69.8816 177.334 68.1024 177.334 65.2369C177.334 62.7168 175.249 61.8985 172.118 61.447ZM169.067 51.2627C170.613 51.2627 171.535 52.6153 171.535 54.8807C171.535 57.4292 170.663 58.9492 169.2 58.9492C167.571 58.9492 166.598 57.537 166.598 55.1719C166.598 52.8344 167.592 51.2627 169.067 51.2627ZM169.121 68.6964C166.906 68.6964 165.635 67.7551 165.635 66.1167C165.635 64.6768 166.908 63.7471 168.878 63.7471C171.627 63.7471 173.142 64.5779 173.142 66.0882C173.143 67.6741 171.563 68.6964 169.121 68.6964ZM145.441 57.7596L145.36 57.8923C143.199 61.4942 140.881 63.2458 138.273 63.2458C135.908 63.2458 135.703 62.2956 135.703 57.4479C135.703 57.4479 135.703 55.2449 135.703 54.943C136.122 54.9029 136.545 54.8905 136.952 54.8905C139.676 54.8905 141.375 55.9947 141.866 58.0819L141.897 58.2235H142.562V50.3651H141.899L141.868 50.504C141.389 52.4568 139.615 53.5788 136.998 53.5788C136.998 53.5788 135.972 53.537 135.704 53.5263V46.4346C136.079 46.3954 136.458 46.3838 136.859 46.3838C140.047 46.3838 142.403 47.6527 144.28 50.3767L144.361 50.4951L145.008 50.2743L143.634 45.0098H133.894L130.279 44.9519L129.976 44.9448V45.6768L130.104 45.7177C131.007 46.0151 131.344 46.5984 131.344 47.8673V57.7435C131.344 61.8032 131.283 63.6144 129.836 63.9955L129.698 64.0312V64.7524L129.901 64.7373C130.955 64.6581 132.057 64.618 133.269 64.618L134.822 64.6492H144.518L146.071 57.9875L145.441 57.7596ZM156.214 61.447L154.256 61.2048C152.724 61.0329 152.194 60.9546 152.194 60.5637C152.194 60.2671 152.431 60.2199 153.441 60.1523C154.024 60.114 154.752 60.0632 155.661 59.8923C158.436 59.3535 160.227 57.4889 160.227 55.1443C160.227 53.2956 159.223 51.9537 157.012 50.8192C157.319 50.5984 157.63 50.4114 157.929 50.4114C158.769 50.4114 159.424 51.065 159.678 52.1585L159.711 52.2974H160.23L161.547 48.2645L160.366 48.1638C158.674 48.1638 157.107 48.9172 155.705 50.3838C154.9 50.2289 153.987 50.0757 153.191 50.0757C149.239 50.0757 146.26 52.2663 146.26 55.1719C146.26 57.3215 147.719 58.9101 150.273 59.6322C148.473 60.0178 147.627 60.626 147.627 61.52C147.627 62.2369 148.198 62.7035 149.335 62.9466C146.625 63.5138 145.296 64.561 145.296 66.1416C145.296 68.3784 148.361 69.8816 152.922 69.8816C158.171 69.8816 161.206 68.1514 161.206 65.2876C161.206 62.7667 159.346 61.8985 156.214 61.447ZM153.165 51.2627C154.709 51.2627 155.633 52.6153 155.633 54.8807C155.633 57.4292 154.76 58.9492 153.297 58.9492C151.667 58.9492 150.696 57.537 150.696 55.1719C150.696 52.8344 151.687 51.2627 153.165 51.2627ZM153.217 68.6964C151.003 68.6964 149.732 67.7551 149.732 66.1167C149.732 64.6768 151.005 63.7471 152.977 63.7471C155.726 63.7471 157.239 64.5779 157.239 66.0882C157.239 67.6741 155.661 68.6964 153.217 68.6964Z" fill="#CAD0CD"/>
<path d="M103.429 37.6126C99.1417 44.4443 87.8548 45.8709 83.1094 41.6492C76.4189 35.6946 80.4508 26.9751 80.4508 26.9751C80.4508 26.9751 80.0783 34.5904 87.0838 35.9199C98.1104 38.0142 100.461 28.2591 99.9531 24.3989C98.64 29.7533 94.5273 34.2511 88.5073 33.642C81.8411 32.9644 80.7425 26.0534 82.3617 20.8459C82.1651 21.0712 81.9731 21.2974 81.7792 21.5245C78.2751 25.6135 76.0015 29.5984 76.9108 34.6198C77.9555 40.3882 81.1608 42.7097 82.3743 43.1995C76.8111 43.0962 68.2627 30.6812 76.4674 20.5984C81.1787 14.8041 88.7721 8.03206 84.5751 0C88.4463 4.17097 89.9991 11.1202 86.618 18.2591C84.0186 23.7471 86.8083 27.5957 91.1794 26.9938C97.3547 26.1425 101.221 18.0018 92.6541 5.25913C99.1004 10.2048 111.865 24.1719 103.429 37.6126ZM89.8681 6.03473C89.8681 6.03473 91.6004 12.2663 88.5711 17.4648C86.7481 20.5948 87.4868 24.7774 90.0422 25.0721C94.0624 25.5361 96.6653 21.455 94.942 15.0882C93.3138 9.06233 89.8681 6.03473 89.8681 6.03473Z" fill="#CAD0CD"/>
<path d="M68.2555 34.5993C68.2645 34.6296 68.278 34.6616 68.2869 34.6928L68.2923 34.5948L68.2555 34.5993Z" fill="#CAD0CD"/>
<path d="M71.5074 1.14693C71.4329 1.14515 73.4659 3.82992 74.236 6.51469C75.2126 9.20125 74.9262 11.8887 74.9873 11.9671C74.8347 12.805 74.2962 12.512 74.2342 11.9724C74.1499 11.9394 74.3249 9.24755 73.1518 6.5423C72.1878 3.84061 69.8756 1.12556 69.6521 1.12199C69.5552 1.1211 71.5945 3.68923 72.4238 6.32057C73.448 8.95548 73.2631 11.6545 73.211 11.9849C73.0225 12.5494 72.7667 12.4746 72.7685 12.4746C72.7667 12.4746 72.5073 12.5485 72.3646 11.9715C72.2183 11.6385 72.3969 8.93856 71.3387 6.30365C70.4752 3.67142 68.3785 1.1024 68.1783 1.09884C68.1047 1.09884 70.0677 3.80766 70.7535 6.5049C71.6492 9.2057 71.2687 11.8931 71.3432 11.927C71.257 12.4639 70.7041 12.7409 70.5892 11.8985C70.5021 11.8192 70.7346 9.13179 69.6387 6.44256C68.7483 3.7569 66.5295 1.06946 66.3132 1.06589C66.3096 1.06589 68.7106 4.47551 69.2294 7.93767C70.0543 11.4061 68.996 14.9261 69.1576 15.2591C69.1791 15.9216 70.2356 15.5307 70.8333 16.5601C71.108 17.0276 70.977 18.5672 70.5739 20.3419C68.1694 27.8682 65.0198 35.382 70.845 43.0383C72.2551 43.0614 74.8347 43.0837 76.2439 43.1051C67.6936 33.911 70.74 27.7444 72.2874 20.1229C72.2865 20.1229 72.2865 20.1229 72.2856 20.1229C72.8026 18.4541 73.2927 17.0419 73.7127 16.6055C74.6857 15.602 75.5931 16.0232 75.8328 15.3651C75.8023 15.0347 76.6334 11.5102 75.4774 8.03651C74.6292 4.56812 71.7937 1.15138 71.5074 1.14693Z" fill="#CAD0CD"/>
<path d="M101.837 43.1638H107.46C107.46 43.1638 108.566 42.3687 110.284 39.1042C112.002 35.8397 111.619 30.8166 110.966 29.057C110.387 26.6153 113.536 26.9688 113.55 26.9724C114.259 27.1362 112.002 21.2983 111.404 15.4194C110.515 9.47373 111.553 3.98486 113.461 1.45948C108.531 3.03384 105.978 9.04987 106.15 15.0187C106.054 20.9243 109.124 26.7792 107.919 26.6064C107.971 26.9804 108.596 29.8753 108.116 33.1398C107.062 39.4034 102.89 42.4497 101.837 43.1638Z" fill="#CAD0CD"/>
</svg>
