<svg width="127" height="81" viewBox="0 0 127 81" fill="none" xmlns="http://www.w3.org/2000/svg">
<path d="M52.365 70.9231C56.762 67.4381 64.735 67.1021 70.541 66.4622C74.575 66.0182 78.641 65.7871 82.747 65.8362C81.434 65.4732 80.123 65.0912 78.815 64.6942C76.159 66.0572 71.636 65.3042 68.608 65.2342C64.497 65.1402 60.365 64.8752 56.23 64.3661C48.298 63.3912 40.484 61.3932 33.087 57.7532C31.508 56.9762 31.333 54.8282 33.374 55.7382C40.791 59.0462 48.593 60.6762 56.408 61.4042C59.939 61.7332 63.464 61.8812 66.979 61.9832C68.172 62.0182 69.398 61.9862 70.633 61.9742C66.234 60.3862 61.892 58.6122 57.636 56.6452C57.581 56.7542 57.467 56.8322 57.264 56.8552C53.912 57.2382 49.991 55.6242 46.652 54.6902C42.604 53.5582 38.575 52.3402 34.597 50.9072C26.996 48.1682 19.642 44.7832 13.06 39.9412C11.885 39.0762 12.558 38.0962 13.814 38.8252C21.038 43.0182 28.647 46.3242 36.502 48.8962C40.089 50.0702 43.696 51.1482 47.319 52.1512C48.211 52.3982 49.109 52.6242 50.006 52.8552C47.384 51.4582 44.801 49.9791 42.268 48.4202C42.251 48.4161 42.237 48.4152 42.22 48.4112C35.03 46.6702 28.066 42.5372 21.774 38.5532C15.095 34.3242 8.493 29.5642 2.913 24.0162C1.814 22.9242 2.937 22.0032 4.123 22.9042C10.169 27.4922 16.123 32.0952 22.617 36.0742C24.745 37.3782 26.927 38.5822 29.124 39.7582C27.468 38.5032 25.897 37.0792 24.398 35.8762C21.006 33.1542 17.653 30.3792 14.384 27.5232C9.29 23.0742 2.81 18.1012 0.0699996 12.0302C-0.322 11.1622 1.045 11.4602 1.384 11.9702C4.245 16.2662 8.584 19.9092 12.847 23.3572C9.622 19.4702 6.702 15.3582 4.154 11.0222C3.868 10.5362 4.181 10.3762 4.602 10.4162C4.341 9.95415 4.075 9.49415 3.826 9.02715C2.417 6.39115 0.319 3.16615 0.269 0.320153C0.255 -0.421847 1.527 0.323153 1.753 0.584153C3.843 3.00115 5.066 6.05215 6.682 8.73415C8.571 11.8682 10.526 14.9662 12.691 17.9622C14.135 19.9592 15.754 21.8782 17.39 23.7912C17.366 23.7452 17.341 23.6962 17.317 23.6512C14.245 17.8822 12.22 11.7452 9.386 5.88915C8.807 4.69215 10.6 4.93315 11.184 5.55515C15.675 10.3442 17.415 16.5532 20.22 22.1072C21.566 24.7732 23.07 27.4082 24.607 29.9992C25.573 31.6272 26.826 33.2912 27.7 35.0232C29.793 36.7312 31.944 38.3752 34.148 39.9532C32.52 37.8941 31.09 35.7512 29.88 33.7892C26.47 28.2602 23.458 21.1522 24.059 15.0842C24.159 14.0702 25.81 15.2672 25.992 15.7942C28.065 21.7862 29.76 27.5402 33.228 33.1582C34.822 35.7392 36.687 38.2182 38.77 40.5062C40.796 42.7322 43.288 44.6922 45.134 47.0462C48.673 49.1062 52.302 51.0152 55.991 52.7782C52.091 49.6472 48.639 45.7662 45.51 42.2222C41.416 37.5852 37.473 32.2892 36.898 26.4362C36.737 24.8002 39.382 26.1192 39.687 27.1982C41.283 32.8582 44.873 37.6352 49.021 42.1542C53.413 46.9402 58.96 50.8672 63.034 55.8492C63.067 55.8892 63.08 55.9252 63.105 55.9632C66.167 57.2452 69.266 58.4192 72.388 59.5032C72.155 59.3002 71.923 59.0992 71.691 58.8852C68.982 56.3881 66.433 53.7472 63.976 51.0352C58.872 45.4012 54.385 39.3362 49.979 33.2522C48.799 31.6222 51.257 31.8092 52.121 32.8602C60.258 42.7532 68.489 52.6762 78.104 61.3762C81.893 62.5352 85.714 63.5462 89.552 64.4202C85.906 60.6762 82.483 56.7462 78.805 53.0192C74.563 48.7212 69.924 44.8062 65.637 40.5592C64.699 39.6301 65.646 38.8922 66.658 39.6202C71.69 43.2442 76.246 47.6522 80.625 51.9602C84.784 56.0512 89 60.3372 92.331 65.0312C94.844 65.5452 97.348 65.9681 99.846 66.3242C96.151 62.9192 93.013 58.8222 89.415 55.3562C85.15 51.2482 80.575 47.4562 75.922 43.7542C74.856 42.9062 75.959 42.2072 76.924 42.8332C82.296 46.3152 87.286 50.2992 91.978 54.6012C95.75 58.0602 100.653 62.2372 103.078 66.7512C110.302 67.6372 117.501 68.0962 124.79 68.8572C125.681 68.9502 127.874 70.9361 126.251 71.1422C119.449 72.0061 112.17 71.5572 104.947 70.5112C99.976 72.1892 94.797 73.4532 89.87 75.2322C86.968 76.2802 84.089 77.3782 81.259 78.5602C78.798 79.5882 76.642 80.7372 73.783 80.7212C73.151 80.7172 72.076 79.8882 72.421 79.2652C73.688 76.9781 76.732 76.1992 79.162 75.2172C81.778 74.1612 84.43 73.1751 87.131 72.2812C90.47 71.1761 93.881 70.0812 97.373 69.2182C95.709 68.8962 94.059 68.5552 92.429 68.2042C92.335 68.3782 92.111 68.4992 91.692 68.5152C85.08 68.7762 78.456 69.0631 71.976 69.9182C65.942 70.7141 60.008 72.8632 53.788 72.7452C53.02 72.7322 51.566 71.5562 52.365 70.9231Z" fill="#E1E1E1"/>
</svg>
