<svg width="155" height="21" viewBox="0 0 155 21" fill="none" xmlns="http://www.w3.org/2000/svg">
<path d="M131.915 19.9049C130.03 19.9049 128.886 19.1319 128.886 17.7791C128.886 16.5552 129.963 15.7822 131.713 15.7822C134.069 15.7822 135.415 16.4908 135.415 17.7147C135.415 19.0031 134.069 19.9049 131.915 19.9049ZM131.915 5.41104C133.261 5.41104 134.069 6.50613 134.069 8.43865C134.069 10.5644 133.328 11.7883 132.049 11.7883C130.636 11.7883 129.828 10.6288 129.828 8.6319C129.761 6.69939 130.636 5.41104 131.915 5.41104ZM134.54 13.8497L132.857 13.6564C131.511 13.5276 131.107 13.4632 131.107 13.1411C131.107 12.8834 131.309 12.8834 132.184 12.819C132.655 12.7546 133.328 12.7546 134.069 12.6258C136.424 12.1748 137.972 10.6288 137.972 8.69632C137.972 7.15031 137.097 6.05521 135.213 5.08896C135.482 4.89571 135.751 4.76687 136.02 4.76687C136.761 4.76687 137.299 5.28221 137.501 6.24847V6.3773H137.972L139.116 3.02761L138.107 2.96319C136.626 2.96319 135.28 3.60736 134.069 4.83129C133.396 4.70245 132.588 4.57362 131.915 4.57362C128.482 4.57362 125.925 6.3773 125.925 8.82515C125.925 10.6288 127.204 11.9172 129.357 12.5613C127.809 12.8834 127.069 13.3988 127.069 14.1074C127.069 14.6871 127.54 15.0736 128.55 15.2669C126.194 15.7178 125.05 16.6196 125.05 17.908C125.05 19.7761 127.675 21 131.646 21C136.155 21 138.78 19.5828 138.78 17.1994C138.847 14.9448 137.232 14.2362 134.54 13.8497ZM125.252 10.8221L125.185 10.9509C123.3 13.9141 121.348 15.3957 119.06 15.3957C117.041 15.3957 116.839 14.6227 116.839 10.5644C116.839 10.5644 116.839 8.76074 116.839 8.50307C117.175 8.43865 117.579 8.43865 117.916 8.43865C120.271 8.43865 121.752 9.34049 122.156 11.0798V11.2086H122.694V4.63804H122.156V4.76687C121.752 6.3773 120.204 7.34356 117.983 7.34356C117.983 7.34356 117.108 7.27914 116.839 7.27914V1.41718C117.175 1.35276 117.512 1.35276 117.848 1.35276C120.608 1.35276 122.627 2.38344 124.242 4.63804L124.31 4.76687L124.848 4.57362L123.637 0.193251H115.291L112.195 0.128834H111.926V0.708589L112.06 0.773006C112.868 1.03067 113.137 1.48159 113.137 2.57669V10.7577C113.137 14.1074 113.07 15.6534 111.858 15.9755H111.724V16.5552H111.926C112.801 16.4908 113.81 16.4264 114.82 16.4264H124.512L125.858 10.8865L125.252 10.8221ZM145.645 19.9049C143.76 19.9049 142.616 19.1319 142.616 17.7791C142.616 16.5552 143.693 15.7822 145.376 15.7822C147.731 15.7822 149.077 16.4908 149.077 17.7147C149.077 19.0031 147.731 19.9049 145.645 19.9049ZM145.577 5.41104C146.924 5.41104 147.731 6.50613 147.731 8.43865C147.731 10.5644 146.991 11.7883 145.712 11.7883C144.299 11.7883 143.491 10.6288 143.491 8.6319C143.491 6.69939 144.299 5.41104 145.577 5.41104ZM148.202 13.8497L146.52 13.6564C145.174 13.5276 144.77 13.4632 144.77 13.1411C144.77 12.8834 144.972 12.8834 145.847 12.819C146.318 12.7546 146.991 12.7546 147.731 12.6258C150.087 12.1748 151.635 10.6288 151.635 8.69632C151.635 7.15031 150.76 6.05521 148.875 5.08896C149.145 4.89571 149.414 4.76687 149.683 4.76687C150.423 4.76687 150.962 5.28221 151.164 6.24847V6.3773H151.635L152.779 3.02761L151.769 2.96319C150.289 2.96319 148.943 3.60736 147.731 4.83129C147.058 4.70245 146.251 4.57362 145.577 4.57362C142.145 4.57362 139.587 6.3773 139.587 8.82515C139.587 10.6288 140.866 11.9172 143.02 12.5613C141.472 12.8834 140.732 13.3988 140.732 14.1074C140.732 14.6871 141.203 15.0736 142.212 15.2669C139.857 15.7178 138.982 16.6196 138.982 17.908C138.982 19.7761 141.405 21 145.308 21C149.818 21 152.644 19.5184 152.644 17.135C152.712 14.9448 150.894 14.2362 148.202 13.8497ZM154.731 20.1626C154.663 20.2914 154.596 20.3558 154.529 20.4202C154.462 20.4847 154.327 20.5491 154.26 20.6135C154.125 20.6779 154.058 20.6779 153.923 20.6779C153.789 20.6779 153.654 20.6779 153.587 20.6135C153.452 20.5491 153.385 20.4847 153.317 20.4202C153.25 20.3558 153.183 20.227 153.115 20.1626C153.048 20.0337 153.048 19.9049 153.048 19.7761C153.048 19.6472 153.048 19.5184 153.115 19.454C153.183 19.3252 153.25 19.2607 153.317 19.1963C153.385 19.1319 153.519 19.0675 153.587 19.0031C153.721 18.9386 153.789 18.9386 153.923 18.9386C154.058 18.9386 154.192 18.9386 154.26 19.0031C154.394 19.0675 154.462 19.1319 154.529 19.1963C154.596 19.2607 154.663 19.3896 154.731 19.454C154.798 19.5828 154.798 19.7117 154.798 19.7761C154.798 19.9049 154.798 20.0337 154.731 20.1626ZM154.933 19.3896C154.865 19.2607 154.798 19.1319 154.663 19.0675C154.596 19.0031 154.462 18.8742 154.327 18.8742C154.192 18.8098 154.058 18.8098 153.923 18.8098C153.789 18.8098 153.654 18.8098 153.519 18.8742C153.385 18.9386 153.25 19.0031 153.183 19.0675C153.115 19.1319 152.981 19.2607 152.914 19.3896C152.846 19.5184 152.846 19.6472 152.846 19.7761C152.846 19.9049 152.846 20.0982 152.914 20.227C152.981 20.3558 153.048 20.4847 153.183 20.5491C153.317 20.6135 153.385 20.7423 153.519 20.7423C153.654 20.8067 153.789 20.8067 153.923 20.8067C154.058 20.8067 154.192 20.8067 154.327 20.7423C154.462 20.6779 154.596 20.6135 154.663 20.5491C154.731 20.4847 154.865 20.3558 154.933 20.227C155 20.0982 155 19.9693 155 19.7761C155 19.6472 155 19.5184 154.933 19.3896ZM153.856 19.7117H153.654V19.3252H153.923C153.923 19.3252 153.99 19.3252 154.058 19.3252C154.125 19.3252 154.125 19.3252 154.125 19.3252C154.125 19.3252 154.192 19.3252 154.192 19.3896C154.192 19.3896 154.192 19.454 154.192 19.5184C154.192 19.5828 154.192 19.5828 154.192 19.6472L154.125 19.7117C154.125 19.7117 154.058 19.7117 153.99 19.7117C153.99 19.7117 153.923 19.7117 153.856 19.7117ZM154.327 19.7761C154.394 19.7117 154.394 19.6472 154.394 19.5184C154.394 19.3896 154.327 19.3252 154.26 19.2607C154.192 19.1963 154.058 19.1963 153.923 19.1963H153.452V20.4202H153.654V19.9049H153.856L154.192 20.4202H154.394L154.058 19.9049C154.192 19.8405 154.26 19.8405 154.327 19.7761ZM65.8901 4.44479C64.3422 4.44479 63.0634 5.28221 62.1211 6.95705C62.1211 6.24847 62.1211 4.70245 62.1211 4.70245L61.9192 4.76687C60.9097 5.02454 59.3617 5.28221 57.3426 5.53988H57.208V6.05521H57.3426C58.3521 6.11963 58.4868 6.57055 58.4868 8.18098V12.1748C58.4868 14.6871 58.3521 15.6534 57.1407 16.0399H57.0061V16.5552H57.6118L60.2366 16.4908L63.3999 16.5552H63.5345V16.0399H63.4672C62.1884 15.7178 62.1211 14.6871 62.1211 11.9816V10.8865C62.1211 9.53374 62.4577 7.85889 63.871 7.85889C64.2076 7.85889 64.4768 7.98773 64.6787 8.2454L64.746 8.30981H65.2171L66.5632 4.44479H65.8901ZM57.3426 8.76073H57.4772V8.18098H57.3426C55.8619 8.2454 54.5159 8.2454 53.3044 8.2454C51.9583 8.2454 50.6122 8.2454 49.3335 8.18098H49.1989V8.76073H49.3335C51.6218 8.95399 51.891 9.53374 51.891 11.9816C51.891 15.0092 51.218 15.911 49.0643 15.911C46.1029 15.911 44.6895 13.5276 44.6895 8.50307C44.6895 3.54294 46.3048 1.15951 49.67 1.15951C52.2275 1.15951 53.7755 2.76994 54.2466 5.9908V6.11963L54.7851 6.24847L56.1984 2.06135L56.0638 1.99693C54.0447 0.708589 51.7564 0.0644172 49.2662 0.0644172C43.6127 0.0644172 39.8437 3.47853 39.8437 8.50307C39.8437 13.7209 43.4781 17.0706 49.0643 17.0706C51.891 17.0706 54.112 16.362 55.8619 14.8159L55.9292 14.7515L55.8619 13.1411V10.5C55.9292 9.40491 56.1984 9.08282 57.3426 8.76073ZM72.7551 5.41104C73.8993 5.41104 74.7069 6.50613 74.7742 8.30981H70.3995C70.736 6.44172 71.6109 5.41104 72.7551 5.41104ZM78.274 11.5307C77.5337 14.1074 76.1203 15.4601 74.1685 15.4601C71.8129 15.4601 70.3322 13.5276 70.3322 10.3067C70.3322 10.3067 70.3322 9.53374 70.3995 9.40491C70.6687 9.40491 79.0816 9.40491 79.0816 9.40491V9.21165C78.6105 6.18405 76.3895 4.38037 72.8897 4.38037C68.9861 4.38037 66.2267 6.89264 66.2267 10.5644C66.2267 14.2362 68.9861 16.8129 72.957 16.8129C76.1203 16.8129 78.274 15.2025 79.2162 12.1104V12.046L78.3413 11.273L78.274 11.5307ZM86.8215 5.41104C87.9657 5.41104 88.7733 6.50613 88.8406 8.30981H84.4659C84.8024 6.44172 85.6101 5.41104 86.8215 5.41104ZM93.2827 12.046L92.4077 11.273L92.3404 11.5307C91.6001 14.1074 90.1867 15.4601 88.2349 15.4601C85.8793 15.4601 84.3986 13.5276 84.3986 10.3067C84.3986 10.3067 84.3986 9.59816 84.4659 9.40491C84.7351 9.40491 93.1481 9.40491 93.1481 9.40491V9.21165C92.6769 6.18405 90.4559 4.38037 86.9561 4.38037C83.0525 4.38037 80.2931 6.89264 80.2931 10.5644C80.2931 14.2362 83.0525 16.8129 87.0234 16.8129C90.1867 16.8129 92.3404 15.2025 93.2827 12.1104V12.046ZM106.743 11.9172V9.98466C106.743 6.24847 105.128 4.44479 101.898 4.44479C100.08 4.44479 98.7343 5.21779 97.9266 6.69939C97.9266 5.9908 97.9266 4.63804 97.9266 4.63804L97.7247 4.70245C96.5132 5.02454 95.0999 5.28221 93.35 5.47546H93.2154V5.9908H93.35C94.3595 6.05521 94.4941 6.50613 94.4941 8.11656V11.9172C94.4941 14.4294 94.4268 15.589 93.0808 16.0399L92.9462 16.1043V16.5552H93.5519L96.244 16.4908L99.4073 16.5552H99.5419V16.1043H99.4073C98.0612 15.7178 97.9939 14.4939 97.9939 11.7883V10.2423C97.9939 7.66564 99.0708 6.05521 100.753 6.05521C102.369 6.05521 103.042 7.27914 103.042 10.2423V12.3681C103.042 14.7515 102.907 15.7822 101.696 16.1043L101.561 16.1687V16.6196H102.167L104.859 16.5552L108.022 16.6196H108.157V16.1687H108.022C106.878 15.7178 106.743 14.6227 106.743 11.9172ZM18.0373 3.09202C19.3834 3.09202 20.393 2.44785 20.393 1.54601C20.393 0.644172 19.3834 0 18.0373 0C16.6913 0 15.6817 0.644172 15.6817 1.54601C15.6817 2.44785 16.624 3.09202 18.0373 3.09202ZM21.8063 16.0399C20.393 15.7178 20.2584 14.6871 20.2584 11.9816V8.95399C20.2584 7.53681 20.2584 6.24847 20.3257 4.8957V4.70245L20.1238 4.76687C18.7777 5.02454 17.0951 5.28221 14.8741 5.53988H14.7395V6.05521H14.8741C16.0855 6.11963 16.1528 6.57055 16.1528 8.18098V12.1748C16.1528 14.4939 16.0855 15.6534 14.6049 16.0399H14.4703V16.5552H14.6049C15.8163 16.4908 16.9605 16.4908 18.1046 16.4908C19.4507 16.4908 20.5949 16.4908 21.6717 16.5552H21.8063V16.0399ZM7.20148 15.3957C5.18237 15.3957 5.11507 14.6871 5.11507 11.273C5.11507 11.273 5.11507 8.56748 5.11507 8.30981C5.38428 8.30981 6.66305 8.2454 6.66305 8.2454C9.4898 8.2454 10.5667 9.21166 10.5667 11.8528C10.4993 14.3006 9.42249 15.3957 7.20148 15.3957ZM5.11507 1.22393C5.31698 1.22393 6.05732 1.15951 6.05732 1.15951C8.54755 1.15951 9.5571 1.99693 9.5571 4.05828C9.5571 6.24847 8.48024 7.21472 6.05732 7.21472L5.24967 7.15031C5.24967 7.15031 5.18237 7.15031 5.04776 7.15031V1.22393H5.11507ZM9.96092 7.53681C12.3165 7.02147 13.4607 5.73313 13.4607 3.86503C13.4607 1.22393 11.3743 0 6.93226 0H5.38428L2.89405 0.0644172H0.269214V0.579755H0.403821C1.00955 0.708589 1.41337 1.09509 1.41337 2.51227V11.0153C1.41337 14.4939 1.34607 15.6534 0.134607 16.0399H0V16.5552H0.134607C1.07686 16.4908 2.08641 16.4908 3.09596 16.4908L5.7881 16.5552H7.53799C12.1819 16.5552 14.6049 14.9448 14.6049 11.7883C14.6049 9.40491 13.0569 7.98773 9.96092 7.53681ZM28.3348 11.7883C26.9214 11.7883 26.1138 10.6288 26.1138 8.6319C26.1138 6.69939 26.9887 5.41104 28.2675 5.41104C29.6135 5.41104 30.4212 6.50613 30.4212 8.43865C30.3539 10.5 29.6135 11.7883 28.3348 11.7883ZM28.0656 15.7822C30.4212 15.7822 31.7673 16.4908 31.7673 17.7147C31.7673 19.0031 30.4212 19.9049 28.3348 19.9049C26.4503 19.9049 25.3061 19.1319 25.3061 17.7791C25.3061 16.5552 26.383 15.7822 28.0656 15.7822ZM33.8537 6.11963V6.24847H34.3248L35.469 2.89877L34.4594 2.83436C32.9787 2.83436 31.6327 3.47853 30.4212 4.70245C29.7482 4.57362 28.9405 4.44479 28.2675 4.44479C24.835 4.44479 22.2775 6.24847 22.2775 8.69632C22.2775 10.5 23.5562 11.7883 25.7099 12.4325C24.162 12.7546 23.4216 13.2699 23.4216 13.9785C23.4216 14.5583 23.8927 14.9448 24.9023 15.138C22.5467 15.589 21.739 16.4908 21.739 17.7791C21.739 19.6472 24.0274 20.8712 27.9983 20.8712C32.5076 20.8712 35.3343 19.3896 35.3343 17.0061C35.3343 14.8804 33.5172 14.2362 30.825 13.8497L29.1424 13.6564C27.7964 13.5276 27.3925 13.4632 27.3925 13.1411C27.3925 12.8834 27.5944 12.8834 28.4694 12.819C28.9405 12.7546 29.6135 12.7546 30.3539 12.6258C32.7095 12.1748 34.2575 10.6288 34.2575 8.69632C34.2575 7.15031 33.3825 6.05521 31.498 5.08896C31.7673 4.89571 32.0365 4.76687 32.3057 4.76687C33.046 4.70245 33.6518 5.21779 33.8537 6.11963Z" fill="#16211B"/>
</svg>
