<svg width="57" height="56" viewBox="0 0 57 56" fill="none" xmlns="http://www.w3.org/2000/svg">
<circle cx="28.4651" cy="27.9426" r="19.0002" fill="#16211B" stroke="#187D61"/>
<circle cx="28.5029" cy="27.98" r="1.89074" fill="#187D61"/>
<path d="M25.0041 4.31828C24.9782 4.15795 24.8272 4.04899 24.6668 4.07493C24.5065 4.10087 24.3975 4.25187 24.4235 4.41221L25.0041 4.31828ZM24.7888 6.67066C24.8147 6.831 24.9657 6.93995 25.1261 6.91402C25.2864 6.88808 25.3954 6.73707 25.3694 6.57674L24.7888 6.67066ZM52.3105 24.5333C52.4708 24.5074 52.5798 24.3564 52.5539 24.1961C52.5279 24.0357 52.3769 23.9268 52.2166 23.9527L52.3105 24.5333ZM49.9581 24.3181C49.7978 24.344 49.6888 24.495 49.7148 24.6553C49.7407 24.8157 49.8917 24.9246 50.052 24.8987L49.9581 24.3181ZM4.78903 31.6247C4.62869 31.6506 4.51974 31.8016 4.54567 31.962C4.57161 32.1223 4.72261 32.2313 4.88295 32.2053L4.78903 31.6247ZM7.1414 31.84C7.30174 31.8141 7.41069 31.6631 7.38476 31.5027C7.35882 31.3424 7.20782 31.2334 7.04748 31.2594L7.1414 31.84ZM32.0954 51.8398C32.1214 52.0001 32.2724 52.109 32.4327 52.0831C32.593 52.0572 32.702 51.9062 32.6761 51.7458L32.0954 51.8398ZM32.3107 49.4874C32.2848 49.327 32.1338 49.2181 31.9735 49.244C31.8131 49.27 31.7042 49.421 31.7301 49.5813L32.3107 49.4874ZM42.8441 8.77035C42.9391 8.63864 42.9094 8.45482 42.7776 8.35979C42.6459 8.26475 42.4621 8.29449 42.3671 8.4262L42.8441 8.77035ZM41.0286 10.2812C40.9336 10.4129 40.9633 10.5968 41.0951 10.6918C41.2268 10.7868 41.4106 10.7571 41.5056 10.6254L41.0286 10.2812ZM47.8584 42.3733C47.9902 42.4684 48.174 42.4386 48.269 42.3069C48.364 42.1752 48.3343 41.9914 48.2026 41.8963L47.8584 42.3733ZM46.3476 40.5579C46.2159 40.4629 46.032 40.4926 45.937 40.6243C45.842 40.756 45.8717 40.9398 46.0034 41.0349L46.3476 40.5579ZM9.2411 13.7847C9.10938 13.6897 8.92556 13.7194 8.83053 13.8511C8.73549 13.9829 8.76523 14.1667 8.89694 14.2617L9.2411 13.7847ZM10.752 15.6001C10.8837 15.6952 11.0675 15.6654 11.1625 15.5337C11.2576 15.402 11.2278 15.2182 11.0961 15.1232L10.752 15.6001ZM14.2555 47.3877C14.1604 47.5194 14.1902 47.7032 14.3219 47.7983C14.4536 47.8933 14.6374 47.8636 14.7324 47.7318L14.2555 47.3877ZM16.0709 45.8768C16.1659 45.7451 16.1362 45.5613 16.0045 45.4663C15.8728 45.3712 15.6889 45.401 15.5939 45.5327L16.0709 45.8768ZM19.2876 6.74101C19.221 6.59286 19.0469 6.52673 18.8988 6.5933C18.7506 6.65988 18.6845 6.83395 18.7511 6.9821L19.2876 6.74101ZM19.0637 7.67778C19.1303 7.82593 19.3043 7.89206 19.4525 7.82548C19.6006 7.75891 19.6668 7.58484 19.6002 7.43669L19.0637 7.67778ZM14.0806 9.86535C13.978 9.73947 13.7927 9.72062 13.6668 9.82325C13.5409 9.92588 13.5221 10.1111 13.6247 10.237L14.0806 9.86535ZM14.1066 10.8281C14.2092 10.954 14.3945 10.9728 14.5204 10.8702C14.6462 10.7675 14.6651 10.5823 14.5625 10.4564L14.1066 10.8281ZM6.91221 19.5403C6.76038 19.4826 6.59053 19.5589 6.53282 19.7107C6.47511 19.8625 6.5514 20.0324 6.70323 20.0901L6.91221 19.5403ZM7.41605 20.361C7.56788 20.4187 7.73774 20.3424 7.79545 20.1906C7.85315 20.0388 7.77686 19.8689 7.62504 19.8112L7.41605 20.361ZM5.4395 25.4314C5.27791 25.4149 5.13357 25.5326 5.1171 25.6941C5.10063 25.8557 5.21827 26.0001 5.37985 26.0165L5.4395 25.4314ZM6.13861 26.0939C6.3002 26.1103 6.44454 25.9927 6.46101 25.8311C6.47748 25.6695 6.35984 25.5252 6.19826 25.5087L6.13861 26.0939ZM7.21175 37.3412C7.0636 37.4078 6.99747 37.5818 7.06405 37.73C7.13062 37.8781 7.30469 37.9443 7.45284 37.8777L7.21175 37.3412ZM8.14852 37.5651C8.29667 37.4985 8.3628 37.3244 8.29622 37.1763C8.22965 37.0281 8.05558 36.962 7.90743 37.0286L8.14852 37.5651ZM10.3361 42.5482C10.2102 42.6508 10.1914 42.8361 10.294 42.962C10.3966 43.0878 10.5819 43.1067 10.7078 43.0041L10.3361 42.5482ZM11.2988 42.5222C11.4247 42.4196 11.4435 42.2343 11.3409 42.1084C11.2383 41.9825 11.053 41.9637 10.9271 42.0663L11.2988 42.5222ZM20.011 49.7166C19.9533 49.8684 20.0296 50.0383 20.1814 50.096C20.3332 50.1537 20.5031 50.0774 20.5608 49.9256L20.011 49.7166ZM20.8318 49.2127C20.8895 49.0609 20.8132 48.891 20.6614 48.8333C20.5095 48.7756 20.3397 48.8519 20.282 49.0037L20.8318 49.2127ZM25.9021 51.1893C25.8857 51.3509 26.0033 51.4952 26.1649 51.5117C26.3265 51.5282 26.4708 51.4105 26.4873 51.2489L25.9021 51.1893ZM26.5646 50.4902C26.5811 50.3286 26.4635 50.1842 26.3019 50.1678C26.1403 50.1513 25.9959 50.2689 25.9795 50.4305L26.5646 50.4902ZM37.8119 49.417C37.8785 49.5652 38.0526 49.6313 38.2007 49.5647C38.3489 49.4982 38.415 49.3241 38.3484 49.1759L37.8119 49.417ZM38.0358 48.4803C37.9693 48.3321 37.7952 48.266 37.647 48.3326C37.4989 48.3991 37.4328 48.5732 37.4993 48.7214L38.0358 48.4803ZM43.0189 46.2927C43.1216 46.4186 43.3068 46.4374 43.4327 46.3348C43.5586 46.2322 43.5774 46.0469 43.4748 45.921L43.0189 46.2927ZM42.9929 45.33C42.8903 45.2041 42.7051 45.1852 42.5792 45.2879C42.4533 45.3905 42.4344 45.5758 42.5371 45.7016L42.9929 45.33ZM50.1873 36.6178C50.3391 36.6755 50.509 36.5992 50.5667 36.4474C50.6244 36.2955 50.5481 36.1257 50.3963 36.068L50.1873 36.6178ZM49.6835 35.797C49.5316 35.7393 49.3618 35.8156 49.3041 35.9674C49.2464 36.1193 49.3227 36.2891 49.4745 36.3468L49.6835 35.797ZM51.66 30.7267C51.8216 30.7431 51.966 30.6255 51.9824 30.4639C51.9989 30.3023 51.8813 30.158 51.7197 30.1415L51.66 30.7267ZM50.9609 30.0642C50.7993 30.0477 50.655 30.1653 50.6385 30.3269C50.6221 30.4885 50.7397 30.6328 50.9013 30.6493L50.9609 30.0642ZM49.8878 18.8168C50.0359 18.7503 50.1021 18.5762 50.0355 18.428C49.9689 18.2799 49.7948 18.2138 49.6467 18.2803L49.8878 18.8168ZM48.951 18.593C48.8029 18.6595 48.7367 18.8336 48.8033 18.9818C48.8699 19.1299 49.0439 19.196 49.1921 19.1295L48.951 18.593ZM46.7634 13.6099C46.8893 13.5072 46.9082 13.322 46.8055 13.1961C46.7029 13.0702 46.5177 13.0513 46.3918 13.154L46.7634 13.6099ZM45.8007 13.6358C45.6748 13.7385 45.656 13.9237 45.7586 14.0496C45.8612 14.1755 46.0465 14.1944 46.1724 14.0917L45.8007 13.6358ZM37.0885 6.44147C37.1462 6.28964 37.0699 6.11978 36.9181 6.06207C36.7663 6.00437 36.5964 6.08066 36.5387 6.23248L37.0885 6.44147ZM36.2678 6.94531C36.2101 7.09714 36.2864 7.26699 36.4382 7.3247C36.59 7.38241 36.7599 7.30612 36.8176 7.15429L36.2678 6.94531ZM31.1974 4.96875C31.2139 4.80717 31.0962 4.66283 30.9347 4.64636C30.7731 4.62989 30.6287 4.74752 30.6123 4.90911L31.1974 4.96875ZM30.5349 5.66787C30.5184 5.82945 30.6361 5.9738 30.7977 5.99027C30.9592 6.00674 31.1036 5.8891 31.1201 5.72752L30.5349 5.66787ZM24.4235 4.41221L24.7888 6.67066L25.3694 6.57674L25.0041 4.31828L24.4235 4.41221ZM52.2166 23.9527L49.9581 24.3181L50.052 24.8987L52.3105 24.5333L52.2166 23.9527ZM4.88295 32.2053L7.1414 31.84L7.04748 31.2594L4.78903 31.6247L4.88295 32.2053ZM32.6761 51.7458L32.3107 49.4874L31.7301 49.5813L32.0954 51.8398L32.6761 51.7458ZM42.3671 8.4262L41.0286 10.2812L41.5056 10.6254L42.8441 8.77035L42.3671 8.4262ZM48.2026 41.8963L46.3476 40.5579L46.0034 41.0349L47.8584 42.3733L48.2026 41.8963ZM8.89694 14.2617L10.752 15.6001L11.0961 15.1232L9.2411 13.7847L8.89694 14.2617ZM14.7324 47.7318L16.0709 45.8768L15.5939 45.5327L14.2555 47.3877L14.7324 47.7318ZM18.7511 6.9821L19.0637 7.67778L19.6002 7.43669L19.2876 6.74101L18.7511 6.9821ZM13.6247 10.237L14.1066 10.8281L14.5625 10.4564L14.0806 9.86535L13.6247 10.237ZM6.70323 20.0901L7.41605 20.361L7.62504 19.8112L6.91221 19.5403L6.70323 20.0901ZM5.37985 26.0165L6.13861 26.0939L6.19826 25.5087L5.4395 25.4314L5.37985 26.0165ZM7.45284 37.8777L8.14852 37.5651L7.90743 37.0286L7.21175 37.3412L7.45284 37.8777ZM10.7078 43.0041L11.2988 42.5222L10.9271 42.0663L10.3361 42.5482L10.7078 43.0041ZM20.5608 49.9256L20.8318 49.2127L20.282 49.0037L20.011 49.7166L20.5608 49.9256ZM26.4873 51.2489L26.5646 50.4902L25.9795 50.4305L25.9021 51.1893L26.4873 51.2489ZM38.3484 49.1759L38.0358 48.4803L37.4993 48.7214L37.8119 49.417L38.3484 49.1759ZM43.4748 45.921L42.9929 45.33L42.5371 45.7016L43.0189 46.2927L43.4748 45.921ZM50.3963 36.068L49.6835 35.797L49.4745 36.3468L50.1873 36.6178L50.3963 36.068ZM51.7197 30.1415L50.9609 30.0642L50.9013 30.6493L51.66 30.7267L51.7197 30.1415ZM49.6467 18.2803L48.951 18.593L49.1921 19.1295L49.8878 18.8168L49.6467 18.2803ZM46.3918 13.154L45.8007 13.6358L46.1724 14.0917L46.7634 13.6099L46.3918 13.154ZM36.5387 6.23248L36.2678 6.94531L36.8176 7.15429L37.0885 6.44147L36.5387 6.23248ZM30.6123 4.90911L30.5349 5.66787L31.1201 5.72752L31.1974 4.96875L30.6123 4.90911Z" fill="#187D61"/>
</svg>
