<svg width="8" height="26" viewBox="0 0 8 26" fill="none" xmlns="http://www.w3.org/2000/svg">
<path d="M0 9.45454C0.266667 4.33333 3.86667 0 3.86667 0L4.26667 0.262625C4.26667 0.262625 3.6 2.10101 3.6 4.07071C3.46667 9.84848 8 13 8 17.596C8 22.4545 5.06667 26 5.06667 26L4.66667 25.7374C4.66667 25.7374 5.2 24.1616 5.2 22.5859C5.33333 18.7778 0 14.5758 0 9.45454ZM1.73333 9.06061C1.86667 10.2424 2.13333 11.5556 3.73333 13.7879C5.33333 16.0202 5.6 17.202 5.73333 17.7273C5.73333 17.8586 6 17.9899 6.13333 17.9899C6.26667 17.9899 6.4 17.7273 6.4 17.596C6.26667 16.5455 5.6 14.9697 4.4 13.2626C2.66667 10.899 2.53333 9.71717 2.26667 8.79798C2.26667 8.66667 2.13333 8.53535 2 8.53535C1.86667 8.53535 1.73333 8.92929 1.73333 9.06061Z" fill="#889D90"/>
</svg>
